<svg clip-rule="evenodd" fill-rule="evenodd" height="62" image-rendering="optimizeQuality" shape-rendering="geometricPrecision" text-rendering="geometricPrecision" viewBox="0 0 2.74 2.65" width="65" xmlns="http://www.w3.org/2000/svg"><path d="m1.37 1.58-.94.94-.06.06c-.09.09-.22.09-.31 0-.08-.08-.08-.21-.01-.29l.74-.74.23-.23-.23-.22-.74-.74c-.07-.09-.07-.22.01-.3.09-.08.22-.08.31 0l.06.07.94.93.93-.93.07-.07c.08-.08.22-.08.3 0s.09.21.01.3l-.74.74-.22.22.22.23.74.74c.08.08.07.21-.01.29-.08.09-.22.09-.3 0l-.07-.06z" fill="#fefefe"/></svg>