<svg clip-rule="evenodd" fill-rule="evenodd" height="70" image-rendering="optimizeQuality" shape-rendering="geometricPrecision" text-rendering="geometricPrecision" viewBox="0 0 4.2 3.11" width="94" xmlns="http://www.w3.org/2000/svg"><path d="m4.09 0h-2.78c-.06 0-.11.05-.11.11v.85h-1.09c-.06 0-.11.05-.11.11v1.47c0 .06.05.11.11.11h.42v.35c0 .04.02.08.06.1.01 0 .03.01.05.01s.04-.01.06-.02l.64-.44h.89c.06 0 .11-.05.11-.11v-.36h.12l.86.59c.02.02.04.02.06.02s.04 0 .05-.01c.04-.02.06-.06.06-.1v-.5h.6c.06 0 .11-.05.11-.11v-1.96c0-.06-.05-.11-.11-.11zm-1.97 2.43h-.81c-.03 0-.05 0-.07.02l-.49.34v-.25c0-.07-.05-.11-.11-.11h-.42v-1.25h1.9zm1.86-.47h-.6c-.06 0-.11.04-.11.11v.4l-.71-.49c-.02-.02-.05-.02-.07-.02h-.15v-.89c0-.06-.05-.11-.11-.11h-.81v-.74h2.56z" fill="#5e51ff"/></svg>