<svg clip-rule="evenodd" fill-rule="evenodd" height="148" image-rendering="optimizeQuality" shape-rendering="geometricPrecision" text-rendering="geometricPrecision" viewBox="0 0 8.93 6.61" width="200" xmlns="http://www.w3.org/2000/svg"><path d="m8.7 0h-5.91c-.13 0-.24.1-.24.23v1.81h-2.32c-.12 0-.23.1-.23.23v3.13c0 .12.11.23.23.23h.9v.75c0 .09.04.17.12.21.04.01.07.02.11.02.05 0 .09-.01.13-.04l1.36-.94h1.89c.13 0 .23-.11.23-.23v-.77h.26l1.83 1.27c.04.03.09.04.14.04.03 0 .07-.01.1-.03.08-.04.13-.12.13-.2v-1.08h1.27c.13 0 .23-.11.23-.23v-4.17c0-.13-.1-.23-.23-.23zm-4.2 5.16h-1.72c-.05 0-.1.02-.13.04l-1.06.73v-.53c0-.13-.1-.24-.23-.24h-.89v-2.65h4.03zm3.96-1h-1.26c-.13 0-.24.11-.24.24v.86l-1.52-1.06c-.04-.02-.09-.04-.14-.04h-.33v-1.89c0-.13-.1-.23-.23-.23h-1.72v-1.57h5.44z" fill="#5e51ff"/></svg>