<svg clip-rule="evenodd" fill-rule="evenodd" height="31" image-rendering="optimizeQuality" shape-rendering="geometricPrecision" text-rendering="geometricPrecision" viewBox="0 0 1.28 1.28" width="31" xmlns="http://www.w3.org/2000/svg"><path d="m.64 0c.17 0 .33.07.45.19.11.11.19.27.19.45 0 .17-.08.33-.19.45-.12.11-.28.19-.45.19-.18 0-.34-.08-.45-.19-.12-.12-.19-.28-.19-.45 0-.18.07-.34.19-.45.11-.12.27-.19.45-.19zm.11.53c-.03-.03-.07-.05-.11-.05-.05 0-.09.02-.11.05-.03.02-.05.06-.05.11 0 .04.02.08.05.11.02.03.06.04.11.04.04 0 .08-.01.11-.04.03-.03.04-.07.04-.11 0-.05-.01-.08-.04-.11z" fill="#b0b0b0" fill-rule="nonzero"/></svg>