<svg clip-rule="evenodd" fill-rule="evenodd" height="110" image-rendering="optimizeQuality" shape-rendering="geometricPrecision" text-rendering="geometricPrecision" viewBox="0 0 .22 1.39" width="18" xmlns="http://www.w3.org/2000/svg"><circle cx=".11" cy=".1" fill="#5e51ff" r=".1"/><path d="m.22 1.27h-.03v-.01-.01-.01h-.01v-.01l-.01-.01v-.01h-.01l-.01-.01h-.01-.01v-.01h-.01-.01v-.03h.01.01v.01h.01.01.01v.01h.01l.01.01h.01v.01h.01v.01l.01.01v.01l.01.01v.01.01zm-.11.12v-.03h.01v-.01h.01.01.01v-.01h.01l.01-.01.01-.01v-.01h.01v-.01-.01-.01-.01h.03v.01.01.01.01l-.01.01v.01l-.01.01v.01h-.01v.01h-.01l-.01.01h-.01l-.01.01h-.01-.01l-.01.01zm-.11-.12h.03v.01.01.01l.01.01v.01h.01v.01h.01v.01h.01v.01h.01.01.01v.01h.01v.03h-.01l-.01-.01h-.01-.01l-.01-.01h-.01l-.01-.01-.01-.01-.01-.01v-.01h-.01v-.01-.01l-.01-.01v-.01-.01-.01zm.11-.11v.03h-.01-.01v.01h-.01-.01v.01h-.01l-.01.01v.01h-.01v.01l-.01.01v.01.01h-.03v-.01-.01l.01-.01v-.01-.01h.01v-.01l.01-.01.01-.01.01-.01h.01v-.01h.01.01.01v-.01h.01z" fill="#5e51ff" fill-rule="nonzero"/><path d="m.11 1.18c.05 0 .1.04.1.09 0 .06-.05.1-.1.1s-.1-.04-.1-.1c0-.05.05-.09.1-.09z" fill="#fff"/><path d="m.11.27v.81" fill="none" stroke="#5e51ff" stroke-dasharray=".04 .11" stroke-width=".04"/></svg>