<svg clip-rule="evenodd" fill-rule="evenodd" height="150" image-rendering="optimizeQuality" shape-rendering="geometricPrecision" text-rendering="geometricPrecision" viewBox="0 0 .17 .9" width="29" xmlns="http://www.w3.org/2000/svg"><circle cx=".09" cy=".07" fill="#ed3237" r=".07"/><path d="m.17.82h-.02v-.01-.01h-.01v-.01-.01h-.01v-.01h-.01v-.01h-.01-.01v-.01h-.01v-.02h.01.01v.01h.01.01v.01h.01l.01.01v.01h.01v.01l.01.01v.01.01zm-.08.08v-.02h.01l.01-.01h.01v-.01h.01l.01-.01v-.01-.01h.01v-.01h.02v.01.01.01h-.01v.01l-.01.01v.01h-.01l-.01.01h-.01l-.01.01h-.01zm-.09-.08h.02v.01h.01v.01.01h.01v.01h.01v.01h.01l.01.01h.01.01v.02h-.01-.01-.01l-.01-.01h-.01l-.01-.01h-.01v-.01l-.01-.01v-.01l-.01-.01v-.01-.01zm.09-.09v.02h-.01-.01v.01h-.01-.01v.01h-.01v.01h-.01v.01.01h-.01v.01.01h-.02v-.01-.01-.01h.01v-.01-.01h.01v-.01l.01-.01h.01v-.01h.01.01v-.01h.01.01z" fill="#5e51ff" fill-rule="nonzero"/><path d="m.09.74c.04 0 .07.04.07.08s-.03.07-.07.07c-.05 0-.08-.03-.08-.07s.03-.08.08-.08z" fill="#fefefe"/><path d="m.09.2v.49" fill="none" stroke="#5e51ff" stroke-width=".01"/></svg>