<svg clip-rule="evenodd" fill-rule="evenodd" height="84" image-rendering="optimizeQuality" shape-rendering="geometricPrecision" text-rendering="geometricPrecision" viewBox="0 0 4.56 3.8" width="100" xmlns="http://www.w3.org/2000/svg"><path d="m.45 3.01c.46.22 1.22.6 1.54.6.35 0 1.26-.41 1.58-.56l-.11-.79c-.07-.02-.28-.08-.52-.08-.14 0-.25.06-.38.12s-.26.13-.45.17c-.41.08-.59.17-.59.28 0 .03.01.04.02.05.06.05.3.13 1.19-.14.05-.01.1.02.11.07.02.05-.01.1-.06.11-.44.13-.77.2-1.01.2-.15 0-.27-.03-.34-.08-.01-.01-.01-.01-.02-.02h-.01c-.17-.05-.65-.19-.83-.19-.16 0-.32.05-.37.14.07.03.15.07.25.12zm3.42.22h.5v-1.31l-.66.13c-.05.01-.08.06-.08.11l.14.99c.01.04.05.08.1.08zm-1.37-3.04h-.57l.14.57h.72zm-2.25.57h.72l.14-.57h-.57zm1.62 0-.14-.57h-.42l-.14.57zm-.73.19v.38h.76v-.38zm.19 1.77c.03-.27.38-.37.74-.44.16-.03.29-.09.41-.15.11-.06.23-.11.37-.13v-1.05h-.76v.47c0 .06-.04.1-.1.1h-.95c-.05 0-.09-.04-.09-.1v-.47h-.76v1.7c.1-.05.23-.09.38-.09.18 0 .57.11.76.16zm-1.33-1.87c0-.01 0-.01 0-.02.01 0 .01-.01.01-.02l.39-.76c.01-.03.05-.05.08-.05h2.07c.04 0 .07.02.09.05l.39.76v.02c.01.01.01.01.01.02v1.15c.17.01.32.04.41.07.03-.1.11-.18.22-.2l.77-.16c.03 0 .06 0 .08.02s.04.05.04.07v1.52c0 .06-.05.1-.1.1h-.59c-.12 0-.22-.08-.26-.18-.22.1-1.2.56-1.62.56-.36 0-1.12-.38-1.62-.62-.13-.07-.24-.12-.31-.15-.04-.02-.06-.05-.06-.09v-2.09z" fill="#5e51ff"/></svg>