<svg clip-rule="evenodd" fill-rule="evenodd" height="69" image-rendering="optimizeQuality" shape-rendering="geometricPrecision" text-rendering="geometricPrecision" viewBox="0 0 4.72 4.91" width="65" xmlns="http://www.w3.org/2000/svg"><g fill="#5e51ff" fill-rule="nonzero"><path d="m4.31.19h-.17c.01-.02.01-.03.01-.05 0-.08-.06-.14-.14-.14s-.15.06-.15.14c0 .02.01.03.01.05h-.55c0-.02.01-.03.01-.05 0-.08-.07-.14-.14-.14-.08 0-.15.06-.15.14 0 .02.01.03.01.05h-.55c0-.02.01-.03.01-.05 0-.08-.07-.14-.15-.14s-.14.06-.14.14c0 .02 0 .03.01.05h-.56c.01-.02.01-.03.01-.05 0-.08-.06-.14-.14-.14s-.14.06-.14.14v.05h-.55c.01-.02.01-.03.01-.05 0-.08-.06-.14-.14-.14s-.15.06-.15.14c0 .02.01.03.01.05h-.17c-.23 0-.41.18-.41.41v3.9c0 .23.18.41.41.41h3.44l.87-.88v-3.43c0-.23-.18-.41-.41-.41zm.19 3.75-.05.05h-.35c-.16 0-.3.13-.3.3v.35l-.05.05h-3.34c-.1 0-.19-.09-.19-.19v-3.15h4.28z"/><path d="m1.75 3.22c-.04 0-.08-.01-.11-.03s-.06-.05-.06-.09h-.38c.01.21.21.39.53.39.33 0 .55-.13.55-.41 0-.43-.68-.32-.68-.5 0-.04.04-.06.13-.06.03 0 .07 0 .1.02.02.01.05.04.05.08h.37c-.03-.21-.18-.38-.51-.38-.29 0-.51.13-.51.38 0 .46.68.33.68.51 0 .06-.06.09-.16.09z"/><path d="m2.66 3.46.04-.15h.39l.04.15h.39l-.42-1.19h-.4l-.43 1.19zm.23-.83.13.43h-.25z"/></g></svg>