<svg clip-rule="evenodd" fill-rule="evenodd" height="100" image-rendering="optimizeQuality" shape-rendering="geometricPrecision" text-rendering="geometricPrecision" viewBox="0 0 1.11 1.11" width="100" xmlns="http://www.w3.org/2000/svg"><path d="m.67 1.05s0 0-.01 0-.06-.49-.06-.49l.43-.43zm-.61-.6.93-.37-.44.44s-.49-.07-.49-.07zm1.03-.43c-.01-.02-.04-.02-.06-.02l-.99.39c-.03.01-.04.04-.04.07 0 .02.02.04.05.05l.49.06v.01l.06.48c.01.03.03.05.06.05s.05-.01.06-.04l.39-.99c.01-.02 0-.04-.02-.06z" fill="#5e51ff"/></svg>