<svg clip-rule="evenodd" fill-rule="evenodd" height="80" image-rendering="optimizeQuality" shape-rendering="geometricPrecision" text-rendering="geometricPrecision" viewBox="0 0 2.94 2.33" width="100" xmlns="http://www.w3.org/2000/svg"><path d="m2.25.83c-.3 0-.55.25-.55.55 0 .31.25.56.55.56.31 0 .56-.25.56-.56 0-.3-.25-.55-.56-.55zm0-.13c-.37 0-.68.31-.68.68 0 .38.31.68.68.68.38 0 .69-.3.69-.68 0-.37-.31-.68-.69-.68zm0 .3c-.04 0-.07.03-.07.07v.24h-.23c-.04 0-.08.03-.08.07s.04.07.08.07h.23v.24c0 .04.03.07.07.07.03 0 .04 0 .06-.02.01-.01.02-.03.02-.05v-.24h.23c.02 0 .04 0 .06-.02.01-.01.02-.03.02-.05 0-.04-.04-.07-.08-.07h-.23v-.24c0-.04-.03-.07-.08-.07zm-1.67-.85h.29v.21h-.62zm.44.36h.29v.8h-.29zm0-.36h.29v.21h-.29zm.43 0h.3l.32.21h-.62zm-1.3.36h.72v.94h.58v-.94h.73v.08c.03-.01.05-.01.07-.01.03 0 .05 0 .08.01v-.15c0-.05-.03-.1-.07-.12l-.43-.3c-.03-.01-.06-.02-.08-.02h-1.17c-.03 0-.05.01-.08.02l-.44.3c-.04.02-.06.07-.06.12v1.74c0 .08.07.15.15.15h2.03c.08 0 .15-.07.15-.15h-2.18v-1.67z" fill="#5e51ff"/></svg>