<svg clip-rule="evenodd" fill-rule="evenodd" height="100" image-rendering="optimizeQuality" shape-rendering="geometricPrecision" text-rendering="geometricPrecision" viewBox="0 0 1.71 1.71" width="100" xmlns="http://www.w3.org/2000/svg"><g fill="#2905a1" fill-rule="nonzero"><path d="m.12.49c0-.03.03-.06.06-.06h1.04c.04 0 .06.03.06.06v1.04c0 .03-.02.06-.06.06h-1.04c-.03 0-.06-.03-.06-.06zm.06 1.22h1.04c.11 0 .19-.08.19-.18v-1.04c0-.1-.08-.18-.19-.18h-1.04c-.1 0-.18.08-.18.18v1.04c0 .1.08.18.18.18z"/><path d="m1.53 0h-1.1c-.1 0-.19.08-.19.18 0 .04.03.06.07.06.03 0 .06-.02.06-.06 0-.03.02-.06.06-.06h1.1c.03 0 .06.03.06.06v1.1c0 .04-.03.07-.06.07s-.06.02-.06.06c0 .03.03.06.06.06.1 0 .18-.08.18-.19v-1.1c0-.1-.08-.18-.18-.18z"/></g></svg>