<svg clip-rule="evenodd" fill-rule="evenodd" height="100" image-rendering="optimizeQuality" shape-rendering="geometricPrecision" text-rendering="geometricPrecision" viewBox="0 0 5.42 11.22" width="49" xmlns="http://www.w3.org/2000/svg"><path d="m2.86 11.22h-.3c-.7 0-1.33-.24-1.8-.68-.49-.45-.76-1.1-.76-1.81l.01-6.3c0-1.41.82-2.43 1.96-2.43h.12c.58 0 1.09.27 1.45.75.33.44.51 1.04.5 1.69l-.01 5.94c0 .38-.12.75-.33 1.02-.24.3-.56.46-.92.46 0 0 0 0-.01 0-.35 0-.69-.16-.95-.45-.25-.28-.38-.65-.38-1.04l.01-4.75c0-.18.15-.33.33-.33.19 0 .34.15.34.33l-.01 4.75c0 .23.07.44.21.6.13.14.3.22.46.22.19 0 .32-.11.39-.21.12-.15.19-.37.19-.6l.01-5.95c.01-.5-.13-.95-.37-1.28-.16-.22-.45-.48-.91-.48h-.12c-.46 0-.75.26-.92.48-.24.32-.37.78-.37 1.28l-.01 6.3c0 1.06.79 1.82 1.89 1.82h.3c1.09 0 1.88-.76 1.88-1.82v-5.26c0-.18.15-.33.34-.33.18 0 .34.15.34.33v5.26c0 .71-.27 1.36-.76 1.81-.47.44-1.11.68-1.8.68z" fill="#2905a1" fill-rule="nonzero"/></svg>