<svg clip-rule="evenodd" fill-rule="evenodd" height="160" image-rendering="optimizeQuality" shape-rendering="geometricPrecision" text-rendering="geometricPrecision" viewBox="0 0 .28 2" width="23" xmlns="http://www.w3.org/2000/svg"><circle cx=".14" cy=".12" fill="#5e51ff" r=".12"/><path d="m.28 1.86h-.03v-.01-.01h-.01v-.01-.01-.01h-.01v-.01l-.01-.01v-.01h-.01l-.01-.01h-.01v-.01h-.01-.01-.01v-.01h-.01-.01v-.03h.01.01.01.01.01l.01.01h.01l.01.01h.01v.01h.01v.01h.01v.01h.01v.01l.01.01v.01l.01.01v.01.01.01.01zm-.14.14v-.04h.01.01.01.01v-.01h.01.01v-.01h.01v-.01h.01v-.01h.01v-.01l.01-.01v-.01-.01l.01-.01v-.01h.03v.01.01.01.01.01h-.01v.01.01h-.01v.01l-.01.01-.01.01-.01.01-.01.01h-.01l-.01.01h-.01-.01v.01h-.01-.01-.01zm-.14-.14h.04v.01.01.01l.01.01v.01l.01.01.01.01.01.01.01.01h.01l.01.01h.01.01.01v.04h-.01-.01-.01l-.01-.01h-.01-.01l-.01-.01h-.01v-.01h-.01v-.01h-.01v-.01h-.01v-.01h-.01v-.01l-.01-.01v-.01-.01l-.01-.01v-.01-.01-.01zm.14-.14v.03h-.01l-.01.01h-.01-.01l-.01.01h-.01v.01h-.01v.01h-.01v.01h-.01v.01.01h-.01v.01.01.01.01h-.04v-.01-.01-.01-.01h.01v-.01-.01l.01-.01v-.01l.01-.01.01-.01.01-.01.01-.01h.01v-.01h.01.01v-.01h.01.01.01.01z" fill="#5e51ff" fill-rule="nonzero"/><path d="m.14 1.73c.07 0 .13.06.13.13s-.06.12-.13.12-.12-.05-.12-.12.05-.13.12-.13z" fill="#fefefe"/><path d="m.14.35v1.19" fill="none" stroke="#5e51ff" stroke-dasharray=".05 .14" stroke-width=".05"/></svg>