<svg clip-rule="evenodd" fill-rule="evenodd" height="100" image-rendering="optimizeQuality" shape-rendering="geometricPrecision" text-rendering="geometricPrecision" viewBox="0 0 4.87 4.88" width="100" xmlns="http://www.w3.org/2000/svg"><g fill-rule="nonzero"><path d="m2.6 3.25c-.08-.07-.22-.06-.29.02l-.77.87v-3.46c0-.11-.09-.21-.21-.21-.11 0-.2.1-.2.21v3.46l-.77-.87c-.08-.08-.21-.09-.29-.02-.08.08-.09.21-.02.29l1.13 1.26c.08.11.23.09.3 0l1.14-1.26c.07-.08.06-.22-.02-.29z" fill="#5e51ff"/><path d="m4.82 1.34-1.12-1.26c-.1-.1-.23-.11-.31 0l-1.14 1.26c-.08.09-.07.22.02.29.13.1.25.03.29-.02l.76-.86v3.44c0 .12.1.21.21.21.12 0 .21-.08.21-.2v-3.45l.77.86c.08.09.2.1.29.02.08-.08.09-.2.02-.29z" fill="#2905a1"/></g></svg>