<svg clip-rule="evenodd" fill-rule="evenodd" height="101" image-rendering="optimizeQuality" shape-rendering="geometricPrecision" text-rendering="geometricPrecision" viewBox="0 0 4.09 4.12" width="100" xmlns="http://www.w3.org/2000/svg"><g fill="#7ad06d"><path d="m1.94 0c-1.08.05-1.94.96-1.94 2.05 0 .33.08.64.22.92l-.21 1.05c-.02.06.04.11.09.1l1.03-.25c.27.13.57.21.88.22 1.11.01 2.04-.87 2.08-1.98.03-1.19-.95-2.16-2.15-2.11zm1.23 3.17c-.3.31-.7.47-1.13.47-.25 0-.49-.05-.71-.16l-.14-.08-.64.15.14-.64-.07-.14c-.12-.23-.18-.47-.18-.73 0-.42.17-.83.47-1.13s.71-.47 1.13-.47c.43 0 .83.17 1.13.47.31.3.47.71.47 1.13 0 .43-.17.83-.47 1.13z"/><path d="m3.03 2.5-.39-.12c-.05-.01-.11 0-.15.04l-.09.1c-.04.04-.11.06-.16.03-.19-.07-.58-.42-.68-.6-.03-.05-.03-.11.01-.16l.08-.11c.04-.04.04-.1.02-.15l-.16-.37c-.04-.09-.16-.12-.23-.05-.12.09-.25.23-.26.39-.03.28.09.62.54 1.04.52.49.93.55 1.2.49.16-.04.28-.19.36-.31.05-.08.01-.19-.09-.22z"/></g></svg>