<svg clip-rule="evenodd" fill-rule="evenodd" height="75" image-rendering="optimizeQuality" shape-rendering="geometricPrecision" text-rendering="geometricPrecision" viewBox="0 0 5.31 3.99" width="100" xmlns="http://www.w3.org/2000/svg"><path d="m.29.47h.89l.26-.36c.05-.06.14-.11.2-.11h.53.92.53c.06 0 .15.05.19.11l.26.36h.95c.16 0 .29.13.29.29v2.94c0 .16-.13.29-.29.29h-4.73c-.16 0-.29-.13-.29-.29v-2.94c0-.16.13-.29.29-.29zm2.37.52c.63 0 1.15.52 1.15 1.16 0 .63-.52 1.15-1.15 1.15-.64 0-1.16-.52-1.16-1.15 0-.64.52-1.16 1.16-1.16zm0 .21c.52 0 .94.42.94.95 0 .52-.42.94-.94.94s-.95-.42-.95-.94c0-.53.43-.95.95-.95zm-1.38-.53h-.92c-.07 0-.13.05-.13.13v2.86c0 .07.06.13.13.13h4.59c.08 0 .13-.06.13-.13v-2.86c0-.08-.05-.13-.13-.13h-.95-.03l-.27-.38c-.04-.06-.12-.1-.18-.1h-.48-.83-.48c-.05 0-.13.04-.17.1z" fill="#5e51ff"/></svg>