<svg clip-rule="evenodd" fill-rule="evenodd" height="105" image-rendering="optimizeQuality" shape-rendering="geometricPrecision" text-rendering="geometricPrecision" viewBox="0 0 11.14 11.62" width="100" xmlns="http://www.w3.org/2000/svg"><path d="m11.08 3.01-2.28-2.9c-.06-.07-.14-.11-.23-.11h-5.99c-.09 0-.18.04-.24.11l-2.28 2.9c-.04.05-.06.11-.06.18v8.13c0 .16.13.3.3.3h10.54c.17 0 .3-.14.3-.3v-8.13c0-.07-.02-.13-.06-.18zm-4.09 2.93-2 2-.83-.83c-.12-.12-.31-.12-.43 0-.11.12-.11.3 0 .42l1.05 1.04c.05.06.13.09.21.09.07 0 .15-.03.21-.09l2.21-2.21c.11-.11.11-.3 0-.42-.12-.12-.31-.12-.42 0zm3.28-3h-4.4v-2.34h2.55zm-7.55-2.34h2.55v2.34h-4.39zm-2.12 10.42v-7.48h9.94v7.48z" fill="#5e51ff"/></svg>