<svg clip-rule="evenodd" fill-rule="evenodd" height="87" image-rendering="optimizeQuality" shape-rendering="geometricPrecision" text-rendering="geometricPrecision" viewBox="0 0 2.77 3.7" width="65" xmlns="http://www.w3.org/2000/svg"><path d="m0 0v3.7l.55-.46.45.36.46-.36.45.42.45-.42.41.46v-3.7zm.63 2.59h1.51v.12h-1.51zm0-.43h1.51v.12h-1.51zm.67-.43v-.15c-.1 0-.2-.03-.26-.07l.05-.18c.06.04.15.07.25.07.09 0 .15-.03.15-.09s-.05-.1-.16-.14c-.17-.05-.28-.13-.28-.28 0-.14.09-.24.26-.28v-.14h.15v.13c.1.01.17.03.22.05l-.04.18c-.04-.02-.11-.05-.22-.05-.1 0-.14.04-.14.08 0 .05.06.09.19.14.18.06.26.15.26.28 0 .14-.1.26-.28.29v.16z" fill="#5e51ff"/></svg>