<svg clip-rule="evenodd" fill-rule="evenodd" height="65" image-rendering="optimizeQuality" shape-rendering="geometricPrecision" text-rendering="geometricPrecision" viewBox="0 0 4.83 4.81" width="65" xmlns="http://www.w3.org/2000/svg"><path d="m3.77 4.03c-.36.28-.81.46-1.31.46-.59 0-1.12-.25-1.5-.63-.39-.38-.63-.91-.63-1.5 0-.49.16-.93.44-1.29.19-.24.43-.45.71-.59-.03.07-.06.14-.09.21-.08.22-.11.46-.11.7 0 .59.24 1.13.62 1.51s.92.62 1.51.62c.26 0 .5-.04.73-.13.08-.03.16-.06.24-.1-.15.29-.36.54-.61.74zm-1.91-4.03h-.01c-.01 0-.02 0-.04 0-.52.15-.98.46-1.3.88-.32.41-.51.93-.51 1.49 0 .67.27 1.28.72 1.73.44.44 1.05.71 1.72.71.57 0 1.1-.2 1.52-.52.42-.34.73-.81.86-1.35.03-.1-.02-.18-.11-.2-.04-.01-.09 0-.14.03-.16.14-.34.25-.55.32-.19.07-.4.11-.62.11-.5 0-.96-.2-1.28-.53-.33-.33-.53-.78-.53-1.28 0-.21.03-.42.09-.6.07-.2.17-.38.3-.53.06-.07.04-.17-.02-.22-.03-.03-.07-.04-.1-.04z" fill="#5e51ff" fill-rule="nonzero"/></svg>