<svg clip-rule="evenodd" fill-rule="evenodd" height="65" image-rendering="optimizeQuality" shape-rendering="geometricPrecision" text-rendering="geometricPrecision" viewBox="0 0 1.55 1.55" width="65" xmlns="http://www.w3.org/2000/svg"><path d="m.78 0c-.43 0-.78.35-.78.78 0 .42.35.77.78.77.42 0 .77-.35.77-.77 0-.43-.35-.78-.77-.78zm.16 1.2c-.04.02-.07.03-.1.04-.02.01-.05.01-.08.01-.05 0-.09-.01-.11-.03-.03-.03-.04-.06-.04-.09 0-.02 0-.03 0-.05 0-.01 0-.03.01-.05l.05-.17c0-.02.01-.04.01-.05 0-.02 0-.03 0-.04 0-.03 0-.04-.01-.05s-.03-.01-.05-.01-.03 0-.04 0c-.02.01-.03.01-.04.01l.02-.05c.03-.01.06-.03.09-.03.03-.01.06-.02.08-.02.05 0 .09.01.12.04.02.02.03.05.03.09v.04c0 .02 0 .03-.01.05l-.05.18c0 .01-.01.03-.01.04v.05c0 .02 0 .03.01.04s.03.02.06.02c.01 0 .02-.01.04-.01.01 0 .02-.01.03-.01zm-.01-.71c-.02.02-.05.03-.09.03-.03 0-.06-.01-.08-.03s-.03-.05-.03-.08.01-.06.03-.08.05-.03.08-.03c.04 0 .07.01.09.03s.03.05.03.08-.01.06-.03.08z" fill="#ce8f64" fill-rule="nonzero"/></svg>