<svg clip-rule="evenodd" fill-rule="evenodd" height="255" image-rendering="optimizeQuality" shape-rendering="geometricPrecision" text-rendering="geometricPrecision" viewBox="0 0 82.45 50.08" width="419" xmlns="http://www.w3.org/2000/svg"><g fill="#fefefe"><path d="m25.3 7.52 10.28-7.52v16.87l-10.28 7.52zm21.57 0 10.28-7.52v16.87l-10.28 7.52zm-.51 0-10.27-7.52v16.87l10.27 7.52z"/><path d="m82.11 40.21c.1.2.15.41.15.62 0 .17-.04.34-.1.51-.14.38-.4.65-.78.82-1.12.51-2.61 1.18-4.44 2-2.29 1.04-3.62 1.65-4.02 1.83.62.77 1.57 1.16 2.87 1.16.86 0 1.64-.25 2.34-.76.69-.5 1.17-1.14 1.44-1.93.23-.66.7-1 1.4-1 .51 0 .9.21 1.2.63.18.26.28.53.28.81 0 .17-.03.35-.1.52-.47 1.38-1.31 2.5-2.5 3.34-1.21.88-2.56 1.32-4.06 1.32-1.92 0-3.56-.68-4.92-2.04-1.37-1.37-2.05-3.01-2.05-4.93 0-1.91.68-3.55 2.05-4.92 1.36-1.36 3-2.04 4.92-2.04 1.39 0 2.65.38 3.8 1.14 1.13.74 1.97 1.71 2.52 2.92zm-79.15 8.41c0 .41-.14.75-.43 1.03s-.64.43-1.03.43h-.04c-.39 0-.73-.15-1.03-.43-.29-.28-.43-.62-.43-1.03v-6.62c0-1.61.57-2.99 1.72-4.13 1.14-1.15 2.52-1.72 4.13-1.72s2.98.57 4.12 1.72c1.15 1.14 1.72 2.52 1.72 4.13v6.62c0 .41-.14.75-.43 1.03-.28.28-.62.43-1.03.43h-.02c-.41 0-.76-.15-1.04-.43-.3-.28-.44-.62-.44-1.03v-6.62c0-.79-.28-1.47-.84-2.04s-1.24-.85-2.04-.85-1.49.28-2.05.85-.84 1.25-.84 2.04zm16.03-2.64 3.82-8.93c.26-.6.71-.9 1.36-.9h.02c.53 0 .94.22 1.22.67.17.25.26.51.26.78 0 .19-.04.39-.13.59l-4.49 10.49c-.37.93-1.05 1.4-2.05 1.4-1.02 0-1.71-.47-2.07-1.4l-4.5-10.49c-.08-.2-.12-.39-.12-.58 0-.27.08-.54.25-.79.29-.45.7-.67 1.23-.67h.03c.65 0 1.09.3 1.34.9 1.93 4.5 3.04 7.09 3.34 7.78 0 .03.16.42.49 1.15zm9.69-9.83c.41 0 .75.15 1.03.43.28.3.43.64.43 1.04v11c0 .41-.15.75-.43 1.03s-.62.43-1.03.43h-.03c-.4 0-.75-.15-1.04-.43s-.43-.62-.43-1.03v-11c0-.4.14-.74.43-1.04.29-.28.64-.43 1.04-.43zm9.93 0c1.91 0 3.56.68 4.92 2.04 1.36 1.37 2.04 3.01 2.04 4.92v5.51c0 .41-.14.75-.43 1.03s-.64.43-1.03.43h-.04c-.39 0-.73-.15-1.02-.43-.3-.28-.44-.62-.44-1.03-.92.97-2.25 1.46-4 1.46-1.92 0-3.56-.68-4.92-2.04-1.37-1.37-2.05-3.01-2.05-4.93 0-1.91.68-3.55 2.05-4.92 1.36-1.36 3-2.04 4.92-2.04zm0 2.96c-1.11 0-2.06.39-2.84 1.18-.78.78-1.16 1.72-1.16 2.82 0 1.12.38 2.06 1.16 2.85.78.77 1.73 1.16 2.84 1.16s2.05-.39 2.83-1.16c.78-.79 1.17-1.73 1.17-2.85 0-1.1-.39-2.04-1.17-2.82-.78-.79-1.73-1.18-2.83-1.18zm11.55 9.51c0 .41-.14.75-.43 1.03s-.64.43-1.03.43h-.04c-.39 0-.73-.15-1.03-.43-.29-.28-.43-.62-.43-1.03v-6.65c0-1.6.57-2.97 1.7-4.11 1.14-1.14 2.51-1.71 4.11-1.71 1.92 0 3.37.64 4.35 1.91.96-1.27 2.41-1.91 4.32-1.91 1.61 0 2.98.57 4.11 1.71 1.14 1.14 1.71 2.51 1.71 4.11v6.65c0 .4-.14.74-.43 1.03-.28.28-.63.43-1.04.43h-.02c-.41 0-.75-.15-1.02-.43-.3-.28-.44-.62-.44-1.03v-6.65c0-.79-.28-1.47-.83-2.02-.56-.56-1.24-.84-2.04-.84-.79 0-1.46.28-2.01.84-.56.55-.84 1.23-.84 2.02v6.65c0 .41-.15.75-.43 1.03s-.62.43-1.03.43h-.03c-.4 0-.75-.15-1.04-.43s-.43-.62-.43-1.03v-6.65c0-.79-.28-1.47-.84-2.02-.55-.56-1.22-.84-2.02-.84-.78 0-1.46.28-2.01.84-.56.55-.84 1.23-.84 2.02zm25.63-9.48c-1.12 0-2.06.39-2.84 1.17s-1.16 1.73-1.16 2.84v.09l6.76-3.04c-.6-.71-1.52-1.06-2.76-1.06z" fill-rule="nonzero"/></g></svg>