<svg clip-rule="evenodd" fill-rule="evenodd" height="102" image-rendering="optimizeQuality" shape-rendering="geometricPrecision" text-rendering="geometricPrecision" viewBox="0 0 516.25 99.57" width="529" xmlns="http://www.w3.org/2000/svg"><g fill="#5e51ff"><path d="m0 30.71 41.95-30.71v68.86l-41.95 30.71zm88.06 0 41.95-30.71v68.86l-41.95 30.71zm-2.08 0-41.95-30.71v68.86l41.95 30.71z"/><path d="m514.87 33.76c.39.83.59 1.67.59 2.53 0 .69-.14 1.38-.39 2.07-.57 1.55-1.62 2.66-3.17 3.35-4.6 2.07-10.66 4.8-18.16 8.19-9.32 4.21-14.78 6.71-16.39 7.46 2.51 3.16 6.4 4.74 11.71 4.74 3.52 0 6.7-1.04 9.57-3.12 2.79-2.04 4.75-4.66 5.88-7.88.94-2.7 2.86-4.06 5.71-4.06 2.05 0 3.67.86 4.9 2.57.74 1.05 1.13 2.16 1.13 3.31 0 .69-.13 1.4-.4 2.12-1.94 5.63-5.34 10.18-10.21 13.63-4.94 3.59-10.47 5.37-16.58 5.37-7.84 0-14.54-2.77-20.1-8.34-5.56-5.55-8.34-12.26-8.34-20.09 0-7.82 2.78-14.53 8.34-20.09s12.26-8.34 20.1-8.34c5.66 0 10.81 1.55 15.5 4.64 4.63 3.03 8.07 7 10.31 11.94zm-323.13 34.32c0 1.67-.59 3.07-1.79 4.2-1.18 1.18-2.58 1.76-4.19 1.76h-.16c-1.6 0-2.99-.58-4.19-1.76-1.18-1.13-1.77-2.53-1.77-4.2v-27.01c0-6.58 2.34-12.21 7.01-16.88s10.29-7.01 16.88-7.01c6.56 0 12.17 2.34 16.83 7.01 4.67 4.67 7.01 10.3 7.01 16.88v27.01c0 1.67-.59 3.07-1.77 4.2-1.13 1.18-2.52 1.76-4.19 1.76h-.1c-1.65 0-3.07-.58-4.25-1.76-1.19-1.13-1.78-2.53-1.78-4.2v-27.01c0-3.25-1.13-6.03-3.41-8.34-2.31-2.31-5.09-3.45-8.34-3.45-3.28 0-6.08 1.14-8.39 3.45-2.27 2.31-3.4 5.09-3.4 8.34zm65.41-10.76 15.63-36.48c1.07-2.45 2.9-3.66 5.55-3.66h.08c2.14 0 3.81.91 4.99 2.71.69 1.03 1.04 2.09 1.04 3.22 0 .78-.18 1.59-.53 2.41l-18.32 42.8c-1.52 3.82-4.31 5.72-8.39 5.72-4.14 0-6.96-1.9-8.44-5.72l-18.37-42.8c-.33-.82-.48-1.62-.48-2.37 0-1.12.33-2.19 1.02-3.26 1.18-1.8 2.85-2.71 4.99-2.71h.15c2.63 0 4.45 1.21 5.48 3.66 7.87 18.4 12.4 28.98 13.63 31.77 0 .14.66 1.71 1.97 4.71zm39.57-40.14c1.67 0 3.07.59 4.2 1.77 1.18 1.2 1.77 2.61 1.77 4.25v44.88c0 1.67-.59 3.07-1.77 4.2-1.13 1.18-2.53 1.76-4.2 1.76h-.1c-1.65 0-3.07-.58-4.25-1.76-1.18-1.13-1.78-2.53-1.78-4.2v-44.88c0-1.64.6-3.05 1.78-4.25 1.18-1.18 2.6-1.77 4.25-1.77zm40.53 0c7.84 0 14.54 2.78 20.1 8.34s8.34 12.27 8.34 20.09v22.47c0 1.67-.59 3.07-1.77 4.2-1.19 1.18-2.59 1.76-4.19 1.76h-.15c-1.62 0-3.02-.58-4.2-1.76-1.19-1.13-1.79-2.53-1.79-4.2-3.74 3.98-9.19 5.96-16.34 5.96-7.82 0-14.52-2.77-20.08-8.34-5.56-5.55-8.34-12.26-8.34-20.09 0-7.82 2.78-14.53 8.34-20.09s12.26-8.34 20.08-8.34zm0 12.1c-4.53 0-8.4 1.58-11.59 4.78-3.17 3.19-4.73 7.05-4.73 11.55 0 4.54 1.56 8.4 4.73 11.6 3.19 3.15 7.06 4.74 11.59 4.74 4.55 0 8.41-1.59 11.56-4.74 3.2-3.2 4.78-7.06 4.78-11.6 0-4.5-1.58-8.36-4.78-11.55-3.18-3.2-7.04-4.78-11.56-4.78zm47.18 38.8c0 1.67-.59 3.07-1.78 4.2-1.18 1.18-2.58 1.76-4.2 1.76h-.15c-1.6 0-3-.58-4.2-1.76-1.17-1.13-1.76-2.53-1.76-4.2v-27.16c0-6.52 2.32-12.11 6.95-16.78 4.64-4.63 10.25-6.96 16.79-6.96 7.83 0 13.74 2.6 17.72 7.8 3.94-5.2 9.84-7.8 17.67-7.8 6.54 0 12.13 2.33 16.78 6.96 4.64 4.67 6.96 10.26 6.96 16.78v27.16c0 1.64-.57 3.03-1.73 4.2-1.18 1.18-2.6 1.76-4.25 1.76h-.08c-1.69 0-3.08-.58-4.2-1.76-1.19-1.13-1.78-2.53-1.78-4.2v-27.16c0-3.22-1.13-5.96-3.41-8.24-2.27-2.27-5.03-3.4-8.29-3.4-3.23 0-5.98 1.13-8.23 3.4-2.28 2.28-3.42 5.02-3.42 8.24v27.16c0 1.67-.59 3.07-1.77 4.2-1.13 1.18-2.53 1.76-4.2 1.76h-.1c-1.65 0-3.07-.58-4.25-1.76-1.17-1.13-1.77-2.53-1.77-4.2v-27.16c0-3.22-1.14-5.96-3.42-8.24-2.25-2.27-5-3.4-8.23-3.4-3.22 0-5.97 1.13-8.24 3.4-2.28 2.28-3.41 5.02-3.41 8.24zm104.63-38.7c-4.55 0-8.41 1.58-11.61 4.78-3.15 3.19-4.74 7.06-4.74 11.6v.35l27.6-12.4c-2.44-2.88-6.2-4.33-11.25-4.33z" fill-rule="nonzero"/></g></svg>