<svg clip-rule="evenodd" fill-rule="evenodd" height="117" image-rendering="optimizeQuality" shape-rendering="geometricPrecision" text-rendering="geometricPrecision" viewBox="0 0 1.23 1.47" width="100" xmlns="http://www.w3.org/2000/svg"><path d="m.28 1.01h.02c.01 0 .01-.01.02-.01.01-.01.01-.03.01-.04 0-.02 0-.03-.01-.04l-.13-.13h.57c.02 0 .03-.01.04-.02s.02-.02.02-.04c0-.01-.01-.03-.02-.04s-.02-.01-.04-.01h-.57l.13-.13c.01-.01.01-.03.01-.04 0-.02 0-.03-.01-.04s-.03-.02-.04-.02-.03.01-.04.02l-.22.22c-.01.01-.01.02-.02.02v.02.02c.01.01.01.02.02.02l.22.23c.01 0 .01.01.02.01zm.07.46h.83c.01 0 .03-.01.04-.02s.01-.02.01-.04v-1.35c0-.02 0-.03-.01-.04s-.03-.02-.04-.02h-.83c-.01 0-.03.01-.04.02s-.01.02-.01.04v.24c0 .02 0 .03.01.04s.03.02.04.02c.02 0 .03-.01.04-.02s.02-.02.02-.04v-.19h.71v1.25h-.71v-.2c0-.01-.01-.03-.02-.04s-.02-.01-.04-.01c-.01 0-.03 0-.04.01s-.01.03-.01.04v.25c0 .02 0 .03.01.04s.03.02.04.02z" fill="#5e51ff"/></svg>