<svg clip-rule="evenodd" fill-rule="evenodd" height="117" image-rendering="optimizeQuality" shape-rendering="geometricPrecision" text-rendering="geometricPrecision" viewBox="0 0 1.24 1.47" width="100" xmlns="http://www.w3.org/2000/svg"><path d="m0 1.06v.22c0 .06.02.1.05.13.03.04.07.06.13.06h.44.01.43c.07 0 .1-.02.13-.06.03-.03.05-.07.05-.13v-.22c0-.15-.04-.26-.13-.35-.01-.01-.07-.06-.09-.06-.03 0-.06.01-.06.04s.03.04.06.07c.08.06.13.15.13.26v.28c0 .02-.01.04-.03.05-.01.01-.02.02-.05.02h-.44-.01-.45c-.02 0-.04-.01-.05-.02s-.02-.03-.02-.05v-.28c0-.11.05-.2.12-.26.03-.03.06-.04.06-.07s-.03-.04-.06-.04c-.02 0-.07.05-.09.06-.09.09-.13.2-.13.35zm.25-.71c0 .08 0 .11.04.19s.11.14.19.17c.31.13.61-.17.48-.49-.03-.08-.1-.14-.18-.18-.13-.07-.31-.04-.41.06-.03.03-.06.05-.08.1-.02.04-.04.09-.04.15zm.08 0c0 .07 0 .09.03.15s.08.11.15.14c.24.09.48-.14.38-.38-.03-.07-.08-.12-.14-.15-.11-.05-.25-.03-.32.05-.03.02-.05.04-.07.08-.01.03-.03.07-.03.11z" fill="#5e51ff"/></svg>