<svg clip-rule="evenodd" fill-rule="evenodd" height="45" image-rendering="optimizeQuality" shape-rendering="geometricPrecision" text-rendering="geometricPrecision" viewBox="0 0 1.27 1.02" width="56" xmlns="http://www.w3.org/2000/svg"><path d="m.1 0h.7c.06 0 .1.04.1.1 0 .05-.04.09-.1.09h-.7c-.06 0-.1-.04-.1-.09 0-.06.04-.1.1-.1zm0 .83h.41c.05 0 .09.04.09.09s-.04.1-.09.1h-.41c-.06 0-.1-.05-.1-.1s.04-.09.1-.09zm0-.42h1.07c.06 0 .1.05.1.1s-.04.09-.1.09h-1.07c-.06 0-.1-.04-.1-.09s.04-.1.1-.1z" fill="#5e51ff"/></svg>