<svg clip-rule="evenodd" fill-rule="evenodd" height="88" image-rendering="optimizeQuality" shape-rendering="geometricPrecision" text-rendering="geometricPrecision" viewBox="0 0 1.64 1.46" width="100" xmlns="http://www.w3.org/2000/svg"><path d="m1.62.58-.78-.57c0-.01-.01-.01-.02-.01s-.02 0-.03.01l-.77.57c-.02.01-.03.04-.01.06.01.02.04.02.06.01l.75-.55.75.55h.03c.01 0 .02 0 .03-.01.01-.02.01-.05-.01-.06zm-.2.08c-.03 0-.05.01-.05.04v.68h-.34v-.37c0-.12-.09-.22-.21-.22s-.21.1-.21.22v.37h-.34v-.68c0-.03-.02-.04-.05-.04-.02 0-.04.01-.04.04v.72c0 .02.02.04.04.04h.43c.02 0 .04-.02.04-.04v-.41c0-.07.06-.13.13-.13s.13.06.13.13v.41c0 .02.02.04.04.04h.43c.02 0 .04-.02.04-.04v-.72c0-.03-.02-.04-.04-.04z" fill="#5e51ff"/></svg>