<svg clip-rule="evenodd" fill-rule="evenodd" height="63" image-rendering="optimizeQuality" shape-rendering="geometricPrecision" text-rendering="geometricPrecision" viewBox="0 0 1.19 1.15" width="65" xmlns="http://www.w3.org/2000/svg"><path d="m.6.69-.41.41-.03.03c-.04.03-.1.03-.13 0-.04-.04-.04-.1-.01-.13l.33-.32.09-.1-.09-.1-.33-.32c-.03-.04-.03-.1.01-.13.03-.04.09-.04.13 0l.03.03.41.4.4-.4.03-.03c.04-.04.1-.04.14 0 .03.03.03.09 0 .13l-.32.32-.1.1.1.1.32.32c.03.03.03.09 0 .13-.04.03-.1.03-.14 0l-.03-.03z" fill="#5e51ff"/></svg>