<svg clip-rule="evenodd" fill-rule="evenodd" height="69" image-rendering="optimizeQuality" shape-rendering="geometricPrecision" text-rendering="geometricPrecision" viewBox="0 0 1.41 1.46" width="65" xmlns="http://www.w3.org/2000/svg"><path d="m1.39 1.33-.35-.36c.09-.11.14-.24.14-.38 0-.33-.27-.59-.59-.59-.33 0-.59.26-.59.59 0 .32.26.59.59.59.12 0 .24-.04.34-.11l.35.36c.01.02.03.03.05.03s.04-.01.05-.02c.03-.03.04-.08.01-.11zm-.8-1.18c.24 0 .43.2.43.44s-.19.43-.43.43-.44-.19-.44-.43.2-.44.44-.44z" fill="#5e51ff" fill-rule="nonzero"/></svg>