<svg clip-rule="evenodd" fill-rule="evenodd" height="101" image-rendering="optimizeQuality" shape-rendering="geometricPrecision" text-rendering="geometricPrecision" viewBox="0 0 7.68 7.76" width="100" xmlns="http://www.w3.org/2000/svg"><path d="m7.68 3.61h-.37v-1.71c0-.41-.34-.74-.75-.74h-.5l-.52-.93c-.08-.14-.23-.23-.39-.23-.07 0-.15.02-.22.06l-1.97 1.1h-2.22c-.41 0-.74.33-.74.74v5.11c0 .41.33.75.74.75h5.82c.41 0 .75-.34.75-.75v-1.5h.37zm-1.12-2.16c.23 0 .42.18.44.4h-.56l-.22-.4zm.45 5.56c0 .25-.2.45-.45.45h-5.82c-.24 0-.44-.2-.44-.45v-5.11c0-.24.2-.45.44-.45h1.68l-.71.4h-.87c-.09 0-.15.07-.15.15s.06.15.15.15h6.17v1.46h-1.09c-.51 0-.92.41-.92.92v.06c0 .51.41.92.92.92h1.09zm.37-1.8h-1.46c-.34 0-.62-.27-.62-.62v-.06c0-.34.28-.62.62-.62h1.46zm-1-.64c0 .19-.15.33-.33.33s-.33-.14-.33-.33c0-.18.15-.32.33-.32s.33.14.33.32z" fill="#5e51ff"/></svg>