<svg clip-rule="evenodd" fill-rule="evenodd" height="100" image-rendering="optimizeQuality" shape-rendering="geometricPrecision" text-rendering="geometricPrecision" viewBox="0 0 3.82 3.82" width="100" xmlns="http://www.w3.org/2000/svg"><circle cx="1.91" cy="1.91" fill="none" r="1.84" stroke="#5e51ff" stroke-width=".15"/><g fill="#5e51ff" fill-rule="nonzero"><path d="m1.37 2.17c.04 0 .07.04.07.08s-.03.07-.07.07-.08-.03-.08-.07.04-.08.08-.08z"/><path d="m1.57 2.25c0 .04.04.07.08.07s.08-.03.08-.07-.04-.08-.08-.08-.08.04-.08.08z"/><path d="m2.01 2.25c0-.04-.04-.08-.08-.08s-.07.04-.07.08.03.07.07.07.08-.03.08-.07z"/><path d="m2.14 2.25c0 .04.04.07.08.07s.07-.03.07-.07-.03-.08-.07-.08-.08.04-.08.08z"/><path d="m1.92 2.8c0 .04-.04.08-.08.08h-.59c-.17 0-.3-.14-.3-.31v-.61c0-.17.13-.31.3-.31h.09v-.26c0-.25.2-.44.45-.44s.45.19.45.44v.26h.09c.17 0 .3.14.3.31v.15c0 .04-.03.07-.07.07s-.08-.03-.08-.07v-.15c0-.09-.06-.16-.15-.16h-1.08c-.09 0-.15.07-.15.16v.61c0 .09.06.15.15.15h.59c.04 0 .08.04.08.08zm-.43-1.15h.6v-.26c0-.16-.13-.29-.3-.29s-.3.13-.3.29z"/><path d="m2.16 2.99c.01.01.03.02.04.02.02 0 .03-.01.04-.02l.19-.19c.02-.02.03-.05.03-.08s-.01-.06-.03-.08l-.19-.2c-.02-.02-.06-.02-.08 0-.02.03-.02.06 0 .09l.19.19-.19.19c-.02.02-.02.06 0 .08zm.32 0c.01.01.03.02.04.02.02 0 .03-.01.04-.02l.19-.19c.02-.02.03-.05.03-.08s-.01-.06-.03-.08l-.19-.2c-.02-.02-.06-.02-.08 0-.02.03-.02.06 0 .09l.18.19-.18.19c-.02.02-.02.06 0 .08z"/></g></svg>