<svg clip-rule="evenodd" fill-rule="evenodd" height="83" image-rendering="optimizeQuality" shape-rendering="geometricPrecision" text-rendering="geometricPrecision" viewBox="0 0 4.28 3.57" width="100" xmlns="http://www.w3.org/2000/svg"><path d="m3.86 2.82c-.43.21-1.15.57-1.45.57-.33 0-1.18-.38-1.48-.53l.1-.73c.07-.02.27-.08.49-.08.13 0 .23.05.36.11.11.06.24.12.42.16.39.07.55.15.55.26 0 .03 0 .04-.02.05-.06.04-.28.12-1.11-.13-.05-.01-.1.01-.11.06-.02.05.01.1.06.11.41.12.72.18.95.18.14 0 .25-.02.32-.07 0-.01.01-.01.01-.02h.02c.16-.05.6-.18.77-.18.15 0 .3.05.35.13-.07.03-.14.07-.23.11zm-3.21.21h-.47v-1.23l.62.13c.04.01.07.05.07.1l-.13.92c-.01.05-.05.08-.09.08zm1.28-2.85h.54l-.13.53h-.68zm2.11.53h-.67l-.14-.53h.54zm-1.52 0 .13-.53h.4l.13.53zm.69.18v.36h-.71v-.36zm-.18 1.67c-.03-.26-.36-.35-.69-.42-.16-.03-.27-.09-.39-.14-.11-.05-.22-.1-.35-.12v-.99h.72v.45c0 .05.04.09.09.09h.89c.05 0 .09-.04.09-.09v-.45h.71v1.6c-.09-.05-.21-.08-.36-.08-.17 0-.53.09-.71.15zm1.25-1.76c0-.01 0-.01-.01-.02 0 0 0-.01 0-.02l-.37-.71c-.01-.03-.04-.05-.08-.05h-1.94c-.03 0-.06.02-.08.05l-.36.71s0 0-.01 0v.02.02 1.07c-.17.01-.31.05-.39.07-.03-.09-.11-.17-.21-.19l-.72-.14c-.03-.01-.06 0-.08.01-.02.02-.03.05-.03.07v1.43c0 .05.04.09.09.09h.56c.11 0 .2-.07.24-.17.2.1 1.12.53 1.52.53.34 0 1.05-.35 1.52-.59.13-.06.23-.11.29-.14.04-.01.06-.04.06-.08v-1.96z" fill="#5e51ff"/></svg>