<svg clip-rule="evenodd" fill-rule="evenodd" height="70" image-rendering="optimizeQuality" shape-rendering="geometricPrecision" text-rendering="geometricPrecision" viewBox="0 0 2.47 2.53" width="68" xmlns="http://www.w3.org/2000/svg"><path d="m.25 1.98h.74.07.34.08.73l-.12-.2c-.06-.09-.1-.19-.13-.29-.02-.1-.04-.21-.04-.32v-.3c0-.19-.08-.36-.2-.48-.13-.13-.3-.21-.49-.21s-.36.08-.48.21c-.13.12-.21.29-.21.48v.3c0 .11-.01.22-.04.32s-.07.2-.12.29zm.98.55c-.09 0-.18-.03-.24-.1-.06-.06-.1-.14-.1-.24 0-.01 0-.01 0-.02h-.8c-.01 0-.03-.01-.04-.02-.02 0-.03-.02-.04-.03-.01-.02-.01-.03-.01-.05 0-.01 0-.03.01-.04l.21-.35c.05-.07.08-.16.1-.24.03-.09.04-.18.04-.27v-.3c0-.24.1-.46.26-.61.15-.16.37-.26.61-.26s.46.1.62.26c.16.15.26.37.26.61v.3c0 .09.01.18.03.27.03.08.06.17.11.24l.2.35c.01 0 .01.01.01.02s.01.01.01.02c0 .01-.01.02-.01.03 0 0 0 .01-.01.02 0 .01-.02.03-.03.03-.01.01-.03.02-.05.02h-.8v.02c0 .1-.04.18-.1.24-.06.07-.14.1-.24.1zm-.13-.36c-.01 0-.01.01-.01.02 0 .04.02.08.04.1.03.03.06.04.1.04s.08-.01.1-.04c.03-.02.04-.06.04-.1 0-.01 0-.02 0-.02z" fill="#5e51ff" fill-rule="nonzero"/></svg>