<svg clip-rule="evenodd" fill-rule="evenodd" height="87" image-rendering="optimizeQuality" shape-rendering="geometricPrecision" text-rendering="geometricPrecision" viewBox="0 0 .6 .8" width="65" xmlns="http://www.w3.org/2000/svg"><path d="m0 0v.8l.12-.1.1.08.1-.08.09.09.1-.09.09.1v-.8z" fill="#5e51ff"/><g fill="#fefefe"><path d="m.28.37v-.03c-.02 0-.04-.01-.06-.01l.01-.04c.02 0 .04.01.06.01s.03-.01.03-.02-.01-.02-.03-.03c-.04-.01-.06-.03-.06-.06s.02-.05.05-.06v-.03h.03v.03c.03 0 .04.01.05.01l-.01.04c-.01-.01-.02-.01-.04-.01-.03 0-.03.01-.03.02s.01.01.04.02c.04.02.05.04.05.07s-.02.05-.06.06v.03z"/><path d="m.14.47h.32v.02h-.32z"/><path d="m.14.56h.32v.02h-.32z"/></g></svg>