<svg clip-rule="evenodd" fill-rule="evenodd" height="100" image-rendering="optimizeQuality" shape-rendering="geometricPrecision" text-rendering="geometricPrecision" viewBox="0 0 14.03 14.03" width="100" xmlns="http://www.w3.org/2000/svg"><g stroke="#5e51ff"><g fill="#5e51ff" stroke-width=".17"><path d="m9.77 4.65h-1.37v-.22c0-.4-.33-.73-.73-.73h-1.31c-.4 0-.73.33-.73.73v.22h-1.38c-.1 0-.18.09-.18.19s.08.18.18.18h.33v4.32c0 .54.44.98.99.98h2.89c.54 0 .98-.44.98-.98v-4.32h.33c.11 0 .19-.08.19-.18s-.08-.19-.19-.19zm-3.77-.22c0-.2.16-.36.36-.36h1.31c.2 0 .36.16.36.36v.22h-2.03zm3.07 4.91c0 .34-.27.62-.61.62h-2.89c-.34 0-.62-.28-.62-.62v-4.32h4.13v4.32z"/><path d="m7.01 9.3c.1 0 .19-.08.19-.19v-3.25c0-.1-.09-.18-.19-.18s-.18.08-.18.18v3.25c0 .1.08.19.18.19z"/><path d="m5.81 9.1c.11 0 .19-.09.19-.19v-2.84c0-.11-.08-.19-.19-.19-.1 0-.18.08-.18.19v2.84c0 .1.08.19.18.19z"/><path d="m8.21 9.1c.1 0 .19-.09.19-.19v-2.84c0-.11-.09-.19-.19-.19s-.18.08-.18.19v2.84c0 .1.08.19.18.19z"/></g><circle cx="7.01" cy="7.01" fill="none" r="6.74" stroke-width=".55"/></g></svg>