<svg clip-rule="evenodd" fill-rule="evenodd" height="61" image-rendering="optimizeQuality" shape-rendering="geometricPrecision" text-rendering="geometricPrecision" viewBox="0 0 1.26 1.17" width="65" xmlns="http://www.w3.org/2000/svg"><path d="m1.24.52c0-.02 0-.03.01-.04 0-.02.01-.04.01-.05 0-.02 0-.03 0-.05 0-.01 0-.02 0-.02v-.01c0-.03-.01-.05-.01-.07-.01-.03-.02-.05-.03-.07 0-.02-.02-.04-.03-.06s-.02-.03-.04-.05c-.01-.02-.03-.03-.05-.04-.01-.01-.03-.03-.05-.03-.02-.01-.04-.02-.06-.02-.02-.01-.05-.01-.07-.01-.01 0-.03 0-.05 0-.01.01-.03.01-.04.01-.02.01-.03.02-.05.02-.01.01-.03.02-.04.03-.01 0-.02.01-.03.02s-.02.02-.03.03c0 0-.01.01-.02.02 0 0-.01.01-.01.02l-.02.03-.02-.03c-.01-.01-.01-.02-.02-.02-.01-.01-.01-.02-.02-.03-.01 0-.01-.01-.02-.02s-.02-.02-.03-.02c-.02-.01-.03-.02-.04-.03-.02 0-.03-.01-.05-.02-.01 0-.03 0-.04-.01-.02 0-.04 0-.05 0-.02 0-.05 0-.07.01-.02 0-.04.01-.06.02-.02 0-.03.01-.05.03-.02.01-.04.02-.05.04-.02.02-.03.03-.04.05s-.02.04-.03.06-.02.04-.03.06c0 .03-.01.05-.01.07v.02.03.04c.01.01.01.03.01.05.01.01.01.02.01.04.01.01.01.02.02.04 0 .01.01.02.02.04 0 .01.01.02.02.03 0 .02.01.03.02.04l.03.03c.01.01.02.03.03.04l.03.03.44.4.3-.27c.07-.06.13-.12.14-.13s.03-.02.04-.03.02-.03.02-.04c.01-.01.02-.02.03-.03s.02-.02.02-.04c.01-.01.02-.02.02-.03.01-.02.02-.03.02-.04.01-.02.01-.03.02-.04zm-.1.04c-.01.01-.01.02-.02.04-.01.01-.01.02-.02.03s-.02.02-.02.03c-.01.01-.02.02-.03.03-.01 0-.02.01-.03.02l-.39.36-.39-.36c-.01-.01-.02-.02-.03-.02-.01-.01-.02-.02-.03-.03 0-.01-.01-.02-.02-.03s-.01-.02-.02-.03-.01-.03-.02-.04c0-.01-.01-.02-.01-.03-.01-.01-.01-.02-.01-.04-.01-.01-.01-.02-.01-.03-.01-.01-.01-.03-.01-.04s0-.02-.01-.03c0-.02.01-.03.01-.03v-.01c0-.02 0-.04.01-.05 0-.02.01-.04.01-.06.01-.02.02-.03.03-.05.01-.01.02-.03.03-.04s.03-.02.04-.03.03-.02.04-.03c.02 0 .03-.01.05-.01s.03-.01.05-.01c.01 0 .02.01.03.01.02 0 .03 0 .04.01.01 0 .02 0 .03.01.01 0 .02.01.03.02.02.01.02.01.03.02s.02.02.03.03.02.02.02.03c.01.01.01.03.02.04l.06.13.05-.13c.01-.01.01-.03.02-.04s.02-.02.02-.03c.01-.01.02-.02.03-.03s.02-.01.03-.02.02-.01.03-.02.03-.01.04-.01c.01-.01.02-.01.04-.01.01 0 .02-.01.03-.01.02 0 .04.01.05.01.02 0 .03.01.05.01.01.01.03.02.04.03s.03.02.04.03.02.03.03.04c.01.02.02.04.03.05 0 .02.01.04.02.06v.06c.01 0 .01.04 0 .1-.01.01-.01.02-.01.03-.01.02-.01.03-.02.04 0 .01-.01.02-.01.03z" fill="#5e51ff" fill-rule="nonzero"/></svg>