<svg clip-rule="evenodd" fill-rule="evenodd" height="76" image-rendering="optimizeQuality" shape-rendering="geometricPrecision" text-rendering="geometricPrecision" viewBox="0 0 1.15 1.35" width="65" xmlns="http://www.w3.org/2000/svg"><path d="m0 .97v.21c0 .06.02.1.05.12.03.03.06.05.12.05h.4.01.4c.06 0 .09-.02.12-.05.03-.02.05-.06.05-.12v-.21c0-.13-.04-.23-.12-.31-.02-.02-.07-.06-.09-.06-.03 0-.05.01-.05.04s.03.04.06.06c.06.06.11.14.11.24v.26c0 .02-.01.04-.02.05s-.03.02-.05.02h-.41-.01-.41c-.02 0-.04-.01-.05-.02s-.02-.03-.02-.05v-.26c0-.1.05-.18.11-.24.03-.02.06-.03.06-.06s-.03-.04-.05-.04-.08.04-.09.06c-.08.08-.12.18-.12.31zm.23-.65c0 .08 0 .11.04.17.03.08.1.14.17.17.29.11.57-.16.45-.45-.03-.08-.1-.14-.17-.18-.12-.06-.28-.03-.38.06-.03.03-.05.05-.07.1-.02.03-.04.08-.04.13zm.08 0c0 .06 0 .09.02.14.03.06.08.11.14.13.22.09.44-.12.35-.35-.02-.06-.07-.11-.13-.14-.1-.05-.22-.03-.3.04-.02.03-.04.05-.06.08-.01.03-.02.07-.02.1z" fill="#5e51ff"/></svg>