<svg clip-rule="evenodd" fill-rule="evenodd" height="59" image-rendering="optimizeQuality" shape-rendering="geometricPrecision" text-rendering="geometricPrecision" viewBox="0 0 1.4 1.28" width="65" xmlns="http://www.w3.org/2000/svg"><path d="m.74 0h-.7c-.01 0-.02 0-.03.01-.01.01-.01.02-.01.03v.91c0 .01 0 .02.01.03s.02.01.03.01h.29v.25.02l.02.02h.01.01.01c.01 0 .01 0 .01-.01l.41-.28h.56c.01 0 .02 0 .03-.01 0 0 .01-.01.01-.03v-.91c0-.01-.01-.02-.01-.03-.01-.01-.02-.01-.03-.01h-.62zm.55.91h-.51s0 0-.01 0c0 0-.01.01-.01.01l-.35.24v-.21c0-.01 0-.02-.01-.03-.01 0-.02-.01-.03-.01h-.29v-.83h1.23v.83z" fill="#5e51ff"/></svg>