<svg clip-rule="evenodd" fill-rule="evenodd" height="100" image-rendering="optimizeQuality" shape-rendering="geometricPrecision" text-rendering="geometricPrecision" viewBox="0 0 12.68 12.68" width="100" xmlns="http://www.w3.org/2000/svg"><path d="m8.88 5.55.84-.85c.17-.16.17-.43 0-.6-.16-.17-.43-.17-.6 0l-.84.84-2.19 2.19-.54.54-1.86-1.86-.13-.13c-.17-.17-.44-.17-.61 0-.16.16-.16.44 0 .6l2.16 2.16.14.14c.03.03.07.06.11.08.01 0 .03.01.04.01l.01.01h.01.01l.01.01h.01.01.01l.02.01h.01.01.01.01.01.01.01.01.01.01.01.01l.02-.01h.01.01.01l.01-.01h.01.01l.01-.01c.01 0 .03-.01.04-.01.04-.02.08-.05.11-.08l.84-.85z" fill="#5e51ff"/><circle cx="6.34" cy="6.34" fill="none" r="6.14" stroke="#5e51ff" stroke-width=".39"/></svg>