<svg clip-rule="evenodd" fill-rule="evenodd" height="53" image-rendering="optimizeQuality" shape-rendering="geometricPrecision" text-rendering="geometricPrecision" viewBox="0 0 16.44 6.24" width="141" xmlns="http://www.w3.org/2000/svg"><g fill-rule="nonzero"><path d="m6.4 1.42v.01c0 .22-.06.39-.2.52s-.33.19-.58.19-.45-.08-.6-.24-.23-.37-.23-.62v-.42c0-.25.07-.46.22-.62s.35-.24.59-.24c.25 0 .45.06.59.19.15.12.22.29.21.52v.01h-.4c0-.14-.04-.24-.1-.3-.07-.07-.17-.1-.3-.1-.12 0-.22.05-.29.15s-.11.23-.11.39v.42c0 .16.04.29.12.39.07.1.17.15.3.15s.22-.03.28-.1c.06-.06.09-.17.09-.3zm.2-.1c0-.23.06-.42.19-.56.13-.15.31-.23.54-.23.22 0 .4.08.53.23.13.14.2.33.2.56v.03c0 .23-.07.42-.2.57-.13.14-.31.22-.53.22-.23 0-.41-.08-.54-.22-.13-.15-.19-.34-.19-.57zm.41.03c0 .14.03.25.08.34s.13.13.24.13.18-.04.23-.13.08-.2.08-.34v-.03c0-.14-.03-.25-.08-.33-.05-.09-.13-.13-.23-.13-.11 0-.19.04-.24.13-.05.08-.08.2-.08.33zm1.68-.79.02.22c.05-.07.11-.14.19-.18.07-.04.16-.07.25-.07.16 0 .28.06.37.16.08.1.13.25.13.47v.95h-.42v-.95c0-.11-.02-.19-.06-.23-.04-.05-.1-.07-.17-.07-.06 0-.12.01-.17.03-.04.03-.08.06-.11.1v1.12h-.42v-1.55zm1.76-.37v.37h.26v.3h-.26v.78c0 .06.02.11.04.13.03.03.06.04.1.04h.06c.01-.01.03-.01.05-.02l.04.3c-.04.02-.09.03-.12.04-.04 0-.09.01-.13.01-.15 0-.26-.04-.34-.12-.07-.08-.11-.21-.11-.38v-.78h-.23v-.3h.23v-.37h.41zm1.43 1.92c-.02-.04-.03-.07-.04-.11s-.02-.08-.03-.12c-.04.07-.09.13-.16.18-.08.05-.16.08-.26.08-.16 0-.28-.04-.37-.13-.09-.08-.13-.19-.13-.34s.06-.27.17-.35c.12-.08.29-.12.51-.12h.24v-.13c0-.07-.02-.13-.06-.17s-.1-.06-.17-.06-.12.02-.16.05-.06.08-.06.13h-.4v-.01c-.01-.13.05-.24.17-.33.12-.1.28-.15.47-.15s.34.05.45.15c.12.09.17.22.17.4v.63c0 .08.01.14.02.21.01.06.03.12.05.19zm-.38-.28c.07 0 .13-.02.19-.05.06-.04.1-.08.12-.13v-.22h-.24c-.08 0-.15.02-.2.07-.04.04-.06.09-.06.16 0 .05.01.09.05.12.03.03.08.05.14.05zm1.68-.01c.07 0 .13-.02.17-.07.04-.04.07-.1.07-.17h.37l.01.01c0 .15-.06.28-.18.39s-.26.16-.44.16c-.23 0-.41-.08-.53-.22-.13-.15-.19-.33-.19-.56v-.04c0-.23.06-.42.19-.56.12-.15.3-.23.53-.23.18 0 .34.06.45.17.12.11.17.25.17.43h-.01-.37c0-.08-.03-.14-.07-.19-.04-.06-.1-.08-.17-.08-.11 0-.19.04-.23.13-.05.08-.07.19-.07.33v.04c0 .14.02.25.07.33.04.09.12.13.23.13zm1.36-1.63v.37h.26v.3h-.26v.78c0 .06.01.11.03.13.03.03.06.04.1.04h.06c.02-.01.03-.01.06-.02l.03.3c-.04.02-.08.03-.12.04-.04 0-.08.01-.13.01-.15 0-.26-.04-.33-.12-.08-.08-.12-.21-.12-.38v-.78h-.23v-.3h.23v-.37h.42zm.45 1.13c0-.23.06-.42.19-.56.13-.15.3-.23.53-.23s.41.08.54.23c.13.14.19.33.19.56v.03c0 .23-.06.42-.19.57-.13.14-.31.22-.54.22-.22 0-.4-.08-.53-.22-.13-.15-.19-.34-.19-.57zm.41.03c0 .14.03.25.07.34.05.09.13.13.24.13s.19-.04.24-.13.08-.2.08-.34v-.03c0-.14-.03-.25-.08-.33-.05-.09-.13-.13-.24-.13s-.18.04-.23.13c-.05.08-.08.2-.08.33zm-8.7 4.27c-.02-.04-.03-.08-.04-.12s-.02-.08-.03-.12c-.04.08-.1.14-.17.19s-.15.07-.25.08c-.16-.01-.28-.05-.37-.13s-.13-.2-.13-.34c0-.15.05-.27.17-.35.12-.09.29-.13.51-.13h.24v-.12c0-.07-.02-.13-.06-.17s-.1-.06-.18-.06c-.06 0-.12.01-.15.05-.04.03-.06.07-.06.13h-.4v-.01c-.01-.13.05-.24.17-.34.12-.09.28-.14.47-.14s.34.05.45.14c.11.1.17.23.17.4v.64c0 .07.01.14.02.21.01.06.03.12.05.19zm-.39-.28c.08 0 .14-.02.2-.06.06-.03.09-.08.12-.12v-.22h-.24c-.09 0-.15.02-.2.06-.04.05-.07.1-.07.17 0 .05.02.09.05.12.04.03.08.05.14.05zm.98-.48c0-.25.05-.44.15-.59.11-.15.26-.23.45-.23.08 0 .15.02.21.05.06.04.11.08.16.15v-.85h.42v2.23h-.36l-.03-.19c-.05.07-.11.12-.18.16-.06.04-.14.05-.22.06-.19-.01-.34-.07-.45-.21-.1-.14-.15-.33-.15-.55zm.41.03c0 .13.02.24.07.32.05.07.12.11.22.11.06 0 .12-.01.16-.04.04-.02.08-.05.11-.1v-.66c-.03-.05-.07-.09-.11-.11-.04-.03-.1-.04-.15-.04-.11 0-.18.04-.23.13-.04.09-.07.21-.07.36zm1.75-.82v1.6c0 .18-.05.32-.15.42-.09.1-.23.15-.4.15-.04 0-.07 0-.1-.01-.03 0-.07-.01-.1-.02l.02-.31c.02 0 .04.01.06.01h.07c.06 0 .1-.02.13-.06s.05-.1.05-.18v-1.6zm-.01-.37h-.42v-.31h.42zm1.27 1.69c-.04.08-.1.14-.18.19-.07.04-.16.06-.25.07-.17-.01-.29-.06-.39-.17-.09-.11-.13-.28-.13-.51v-.9h.41v.9c0 .13.02.23.06.28.03.05.09.07.17.07.06 0 .12-.01.17-.03s.09-.05.12-.1v-1.12h.41v1.55h-.34zm1.08-1.32.02.22c.05-.08.12-.14.19-.18.08-.05.16-.07.26-.07.15 0 .27.05.36.15s.13.26.13.48v.95h-.42v-.95c0-.11-.02-.19-.05-.23-.04-.05-.1-.07-.18-.07-.06 0-.11.01-.16.03s-.09.06-.12.1v1.12h-.41v-1.55zm1.77-.38v.38h.26v.29h-.26v.79c0 .06.01.1.04.13.02.02.05.04.1.04.02 0 .04 0 .05-.01.02 0 .04 0 .06-.01l.03.3c-.04.02-.08.03-.12.03-.04.01-.08.01-.13.02-.14-.01-.25-.04-.33-.12s-.12-.21-.12-.38v-.79h-.22v-.29h.22v-.38zm.45 1.14c0-.23.06-.42.19-.57.13-.14.31-.22.53-.22.23 0 .41.08.54.22.13.15.19.34.19.57v.03c0 .23-.06.42-.19.57-.13.14-.31.21-.53.22-.23-.01-.41-.08-.54-.22-.13-.15-.19-.34-.19-.57zm.41.03c0 .14.03.25.08.34.05.08.13.13.24.13.1 0 .18-.05.23-.13.05-.09.08-.2.08-.34v-.03c0-.14-.03-.25-.08-.34-.05-.08-.13-.13-.24-.13-.1 0-.18.05-.23.13-.05.09-.08.2-.08.34z" fill="#2905a1"/><path d="m1.33 5.58h-.14c-.32 0-.62-.11-.84-.32-.23-.21-.35-.51-.35-.84v-2.93c0-.65.39-1.13.91-1.13h.01.05c.27.01.51.13.68.35.15.21.23.49.23.79l-.01 2.76c0 .18-.05.35-.15.47-.11.14-.26.22-.43.22-.16 0-.33-.08-.44-.21-.12-.13-.18-.31-.18-.49v-2.2c0-.09.07-.16.16-.16s.15.07.15.16v2.21c0 .1.03.2.1.27.06.07.14.11.21.11.09 0 .15-.06.18-.1.06-.07.09-.17.09-.28l.01-2.76c0-.24-.06-.45-.17-.6-.08-.1-.21-.22-.43-.22h-.06c-.21 0-.34.12-.42.22-.11.15-.18.36-.18.59v2.93c0 .49.37.85.88.85h.14c.51 0 .87-.36.87-.85v-2.44c0-.09.07-.16.16-.16s.16.07.16.16v2.44c0 .33-.13.63-.36.84-.21.21-.51.32-.83.32z" fill="#5e51ff"/></g></svg>