<svg clip-rule="evenodd" fill-rule="evenodd" height="389" image-rendering="optimizeQuality" shape-rendering="geometricPrecision" text-rendering="geometricPrecision" viewBox="0 0 118.34 120.01" width="383" xmlns="http://www.w3.org/2000/svg"><g fill-rule="nonzero"><path d="m108.42 65.8c0 29.94-24.27 54.21-54.21 54.21-7.34 0-14.34-1.46-20.73-4.11-17.46-7.23-30.31-23.32-32.97-42.65-.34-2.44-.51-4.93-.51-7.45 0-29.95 24.27-54.22 54.21-54.22s54.21 24.27 54.21 54.22z" fill="#5e51ff"/><path d="m54.21 11.58c-2.87 0-5.68.23-8.43.65 25.94 4.05 45.79 26.49 45.79 53.57 0 27.07-19.84 49.5-45.78 53.55 2.74.43 5.56.66 8.42.66 29.94 0 54.21-24.27 54.21-54.21 0-29.95-24.27-54.22-54.21-54.22z" fill="#2905a1"/><path d="m115.19 61.79-30.95 20.5c-2.21 1.46-4.88 2.04-7.49 1.62-2.62-.42-5.3.15-7.51 1.62l-4.14 2.74-23.2-34.19 5.69-24.6c.44-1.91.66-3.85.66-5.78 0-5-1.46-9.94-4.27-14.17-.69-1.05-1.02-2.23-1.02-3.39 0-1.99.97-3.94 2.75-5.12 2.41-1.59 5.59-1.3 7.66.71l3.69 3.57c4.22 4.09 7.47 9.08 9.51 14.59l2 5.38 20.59-13.61c3.29-2.17 7.74-1.22 9.84 2.15 2.03 3.24.99 7.53-2.2 9.64-.04.03-.05.07-.03.1s.05.06.1.04c.81-.31 1.66-.47 2.51-.47 1.34 0 2.68.39 3.82 1.13.79.51 1.49 1.19 2.04 2.02 1.06 1.6 1.38 3.49 1.03 5.24-.55 2.76-2.55 4.18-2.94 4.44-.07.05-.09.14-.04.21v.01c.05.06.14.08.2.04.56-.14 1.13-.21 1.7-.21 1.4 0 2.79.4 3.96 1.15.8.51 1.51 1.19 2.05 2.01 2.14 3.23 1.26 7.59-1.98 9.73-.08.06-.16.11-.24.16-.04.04-.05.1-.03.14 0 .01.02.02.02.02.04.03.1.04.14 0 2.01-.69 4.2-.37 5.96.77.81.52 1.53 1.22 2.1 2.07 2.14 3.24 1.25 7.6-1.98 9.74z" fill="#fdd7bd"/><path d="m65.39 94.76-13.06 8.65-18.85 12.49c-17.46-7.23-30.31-23.31-32.97-42.65l21.88-14.49 13.32-8.83c1.53-1.01 3.6-.59 4.62.95l26.01 39.26c1.01 1.54.59 3.6-.95 4.62z" fill="#87dbff"/><path d="m65.39 94.76-13.06 8.65-29.94-44.65 13.32-8.83c1.53-1.01 3.6-.59 4.62.95l26.01 39.26c1.01 1.54.59 3.6-.95 4.62z" fill="#6fc7ff"/><g fill="#fac5aa"><path d="m103.2 24.25-10.3 5.51c-1.46.78-3.27.38-4.25-.95l8.12-5.26c.02.03.05.06.1.04.81-.31 1.66-.47 2.51-.47 1.35 0 2.68.39 3.82 1.13z"/><path d="m109.15 37.15-10.07 5.39c-1.46.78-3.27.38-4.26-.95l8.12-5.26.35-.16c.05.06.14.08.2.04.56-.14 1.13-.21 1.71-.21 1.39 0 2.78.4 3.95 1.15z"/><path d="m115.07 49.98-8.87 4.74c-1.46.78-3.28.38-4.26-.95l7.03-4.56c.04.03.1.04.14 0 2.01-.69 4.2-.37 5.96.77z"/></g></g></svg>