<svg clip-rule="evenodd" fill-rule="evenodd" height="28" image-rendering="optimizeQuality" shape-rendering="geometricPrecision" text-rendering="geometricPrecision" viewBox="0 0 4.51 2.69" width="48" xmlns="http://www.w3.org/2000/svg"><path d="m2.26 0c-.87 0-1.65.47-2.22 1.24-.05.06-.05.15 0 .21.57.77 1.35 1.24 2.22 1.24.86 0 1.64-.47 2.22-1.24.04-.06.04-.15 0-.21-.58-.77-1.36-1.24-2.22-1.24zm.06 2.29c-.57.04-1.05-.43-1.01-1.01.03-.47.41-.85.88-.88.58-.04 1.05.43 1.01 1.01-.03.47-.41.85-.88.88zm-.03-.44c-.31.02-.56-.23-.54-.54.01-.25.22-.46.47-.48.31-.02.57.24.55.55-.02.25-.23.46-.48.47z" fill="#a9abae" fill-rule="nonzero"/></svg>