<svg clip-rule="evenodd" fill-rule="evenodd" height="65" image-rendering="optimizeQuality" shape-rendering="geometricPrecision" text-rendering="geometricPrecision" viewBox="0 0 3.59 3.59" width="65" xmlns="http://www.w3.org/2000/svg"><path d="m1.8.33c.81 0 1.46.66 1.46 1.47s-.65 1.46-1.46 1.46-1.47-.65-1.47-1.46.66-1.47 1.47-1.47z" fill="none" stroke="#fefefe" stroke-width=".67"/><path d="m1.8.33c.81 0 1.46.66 1.46 1.47s-.65 1.46-1.46 1.46-1.47-.65-1.47-1.46.66-1.47 1.47-1.47z" fill="#5e51ff"/><path d="m2.42 1.6.21-.2c.04-.05.04-.11 0-.15s-.11-.04-.15 0l-.21.2-.53.54-.14.13-.45-.45-.04-.04c-.04-.04-.1-.04-.15 0-.04.05-.04.11 0 .15l.54.53.03.04c.01.01.02.01.03.02h.01.01v.01h.01.01.01.01.01v-.01h.01.01c.01-.01.02-.01.03-.02l.2-.21z" fill="#fefefe"/></svg>