<svg clip-rule="evenodd" fill-rule="evenodd" height="100" image-rendering="optimizeQuality" shape-rendering="geometricPrecision" text-rendering="geometricPrecision" viewBox="0 0 6.37 6.37" width="100" xmlns="http://www.w3.org/2000/svg"><path d="m3.18 2.03c-.32 0-.61.13-.82.33-.2.21-.33.5-.33.82s.13.61.33.82c.21.21.5.34.82.34s.61-.13.82-.34.34-.5.34-.82-.13-.61-.34-.82c-.21-.2-.5-.33-.82-.33zm3.06.59-.79-.16-.01-.02c-.02-.06-.04-.11-.06-.17-.03-.05-.05-.11-.08-.16l-.01-.02.45-.68c.02-.03.03-.06.03-.09 0-.04-.02-.07-.05-.1l-.58-.58c-.02-.03-.06-.04-.09-.04-.03-.01-.07 0-.1.02l-.68.45-.02-.01c-.05-.02-.1-.05-.16-.07-.05-.02-.11-.04-.17-.06l-.02-.01-.16-.8c0-.03-.02-.06-.05-.09-.03-.02-.06-.03-.09-.03h-.83c-.04 0-.07.01-.1.03-.02.03-.04.06-.05.09l-.16.8-.02.01c-.06.02-.11.04-.17.06-.05.02-.11.05-.16.07l-.02.01-.68-.45c-.03-.02-.06-.03-.09-.02-.04 0-.07.01-.1.04l-.58.58c-.03.03-.04.06-.04.1-.01.03 0 .06.02.09l.45.68-.01.02c-.02.05-.05.11-.07.16-.02.06-.05.11-.06.17l-.01.02-.8.16c-.03.01-.06.03-.09.05-.02.03-.03.06-.03.1v.83c0 .03.01.07.03.09.03.03.06.05.09.05l.8.16.01.02c.01.06.04.12.06.17.02.06.05.11.07.16l.01.02-.45.68c-.02.03-.03.07-.02.1 0 .03.01.07.04.09l.58.59c.03.02.06.04.1.04.03 0 .06-.01.09-.03l.68-.45.02.01c.05.03.11.05.16.08.06.02.11.04.17.06l.02.01.16.79c.01.04.03.07.05.09.03.02.06.04.1.04h.83c.03 0 .06-.02.09-.04s.05-.05.05-.09l.16-.79.02-.01c.06-.02.12-.04.17-.06.06-.03.11-.05.16-.08l.02-.01.68.45c.03.02.07.03.1.03s.07-.02.09-.04l.58-.59c.03-.02.05-.06.05-.09s-.01-.07-.03-.1l-.45-.68.01-.02c.03-.05.05-.1.08-.16.02-.05.04-.11.06-.17l.01-.02.79-.16c.04 0 .07-.02.09-.05.02-.02.04-.06.04-.09v-.83c0-.04-.02-.07-.04-.1-.02-.02-.05-.04-.09-.05zm-.21.86-.73.14c-.03.01-.06.02-.08.04s-.03.05-.04.07c-.02.09-.05.17-.08.25s-.07.15-.12.23c-.01.02-.02.05-.01.08 0 .02 0 .05.02.08l.43.64-.41.41-.64-.43c-.03-.02-.06-.02-.08-.02-.03-.01-.06 0-.08.01-.08.05-.15.08-.23.12-.08.03-.16.06-.25.08-.02.01-.05.02-.07.04s-.03.05-.04.08l-.15.76h-.58l-.15-.76c-.01-.03-.02-.06-.04-.08s-.04-.03-.07-.04c-.08-.02-.16-.05-.24-.08-.08-.04-.16-.07-.23-.12-.03-.01-.05-.02-.08-.01-.03 0-.06 0-.08.02l-.65.43-.41-.41.43-.64c.02-.03.03-.06.03-.08 0-.03-.01-.06-.02-.08-.04-.08-.08-.15-.11-.23-.04-.08-.06-.16-.09-.25 0-.02-.02-.05-.04-.07s-.04-.03-.07-.04l-.77-.15v-.58l.77-.15c.03-.01.05-.02.07-.04s.04-.04.04-.07c.03-.08.05-.16.09-.24.03-.08.07-.16.11-.23.01-.03.02-.05.02-.08s-.01-.06-.03-.08l-.43-.65.41-.41.65.43c.02.02.05.03.08.03s.05-.01.08-.02c.07-.04.15-.08.23-.11.08-.04.16-.06.24-.09.03 0 .05-.02.07-.04s.03-.04.04-.07l.15-.77h.58l.15.77c.01.03.02.05.04.07s.05.04.07.04c.09.03.17.05.25.09.08.03.15.07.23.11.02.01.05.02.08.02.02 0 .05-.01.08-.03l.65-.43.4.41-.43.65c-.02.02-.02.05-.02.08-.01.03 0 .05.01.08.05.07.08.15.12.23.03.08.06.16.08.24.01.03.02.05.04.07s.05.03.08.04l.76.15v.58zm-2.85.56c-.23 0-.45-.1-.6-.25-.16-.16-.25-.37-.25-.61 0-.23.09-.45.25-.6.15-.16.37-.25.6-.25.24 0 .45.09.61.25.15.15.25.37.25.6 0 .24-.1.45-.25.61-.16.15-.37.25-.61.25z" fill="#5e51ff"/></svg>