<svg clip-rule="evenodd" fill-rule="evenodd" height="69" image-rendering="optimizeQuality" shape-rendering="geometricPrecision" text-rendering="geometricPrecision" viewBox="0 0 4.69 5.05" width="65" xmlns="http://www.w3.org/2000/svg"><g fill="#5e51ff"><path d="m3.43 4.69h-2.15c-.36 0-.67-.15-.83-.48-.24-.48.06-.81.23-1.16.02-.03.03-.05.04-.07l.68-1.25c.04-.07.14-.29.18-.29h1.53c.04 0 .13.2.18.28.01.03.02.05.04.07l.91 1.68c.14.28.11.61-.07.86-.17.24-.43.36-.74.36zm-2.25-4.32c.05 0 .03-.01.06-.01.62 0 .76.4.9.4.13 0 .14-.06.31-.16.38-.22.64-.23 1.06-.23l-.33.63c-.02.03-.03.08-.07.08h-1.53c-.04 0-.09-.12-.11-.16zm-.46-.17c0 .13.04.16.12.31.06.11.39.73.39.75l-.78 1.44c-.09.16-.29.52-.37.7-.07.17-.08.32-.08.51 0 .3.17.6.36.79.16.17.48.35.8.35h2.37c.4 0 .81-.27.99-.59.14-.24.17-.38.17-.67s-.16-.55-.28-.77c-.02-.03-.02-.04-.04-.07l-.08-.16c-.14-.27-.36-.63-.5-.91-.02-.03-.02-.04-.04-.07s-.02-.05-.04-.08c-.03-.05-.05-.1-.08-.15l-.17-.3c0-.1.51-.91.51-1.04 0-.07-.01-.11-.07-.16-.04-.03-.1-.04-.16-.04-.41-.06-.82-.06-1.2.11-.1.04-.28.12-.35.19-.12-.08-.11-.09-.27-.18-.02-.01-.02-.01-.04-.02-.34-.16-.61-.17-.97-.1-.09.02-.19.06-.19.16z"/><path d="m2.16 2.35h-.11c-.12 0-.25.12-.25.24v.41c0 .12.13.25.25.25h.48v.18h-.57c-.08 0-.16.08-.16.2 0 .07.09.16.16.16h.2v.18h.37v-.18h.11c.12 0 .25-.12.25-.25v-.4c0-.13-.13-.25-.25-.25h-.48v-.18h.57c.08 0 .16-.08.16-.21 0-.07-.09-.15-.16-.15h-.2v-.18h-.37z"/></g></svg>