<svg clip-rule="evenodd" fill-rule="evenodd" height="100" image-rendering="optimizeQuality" shape-rendering="geometricPrecision" text-rendering="geometricPrecision" viewBox="0 0 1.25 1.25" width="100" xmlns="http://www.w3.org/2000/svg"><path d="m1.25.63h-.16v-.03-.02l-.01-.03v-.02l-.01-.02v-.02l-.01-.02-.01-.03-.01-.02-.01-.02-.01-.02-.01-.01-.01-.02-.02-.02-.01-.02-.02-.01-.01-.02-.02-.01-.02-.02-.02-.01-.01-.01-.02-.01-.02-.01-.02-.01-.03-.01-.02-.01h-.02l-.02-.01h-.02l-.03-.01h-.02-.02v-.16h.03.03l.03.01h.03l.03.01.03.01.03.01.03.01.03.01.02.02.03.01.02.02.03.01.02.02.03.02.02.02.02.02.02.03.02.02.01.03.02.02.01.03.02.02.01.03.01.03.01.03.01.03.01.03v.03l.01.03v.03zm-.62.62v-.16h.02.02l.03-.01h.02l.02-.01h.02l.02-.01.03-.01.02-.01.02-.01.02-.01.01-.01.02-.01.02-.02.02-.01.01-.02.02-.01.01-.02.02-.02.01-.02.01-.01.01-.02.01-.02.01-.02.01-.03.01-.02v-.02l.01-.02v-.02l.01-.03v-.02-.02h.16v.03.03l-.01.03v.03l-.01.03-.01.03-.01.03-.01.03-.01.03-.02.02-.01.03-.02.02-.01.03-.02.02-.02.03-.02.02-.02.02-.03.02-.02.02-.03.01-.02.02-.03.01-.02.02-.03.01-.03.01-.03.01-.03.01-.03.01h-.03l-.03.01h-.03zm-.63-.62h.16v.02.02l.01.03v.02l.01.02v.02l.01.02.01.03.01.02.01.02.01.02.01.01.01.02.02.02.01.02.02.01.01.02.02.01.02.02.02.01.01.01.02.01.02.01.02.01.03.01.02.01h.02l.02.01h.02l.03.01h.02.03v.16h-.04-.03l-.03-.01h-.03l-.03-.01-.03-.01-.03-.01-.03-.01-.03-.01-.02-.02-.03-.01-.02-.02-.03-.01-.02-.02-.03-.02-.02-.02-.02-.02-.02-.03-.02-.02-.01-.03-.02-.02-.01-.03-.02-.02-.01-.03-.01-.03-.01-.03-.01-.03-.01-.03v-.03l-.01-.03v-.03-.03zm.63-.63v.16h-.03-.02l-.03.01h-.02l-.02.01h-.02l-.02.01-.03.01-.02.01-.02.01-.02.01-.01.01-.02.01-.02.02-.02.01-.01.02-.02.01-.01.02-.02.02-.01.02-.01.01-.01.02-.01.02-.01.02-.01.03-.01.02v.02l-.01.02v.02l-.01.03v.02.03h-.16v-.04-.03l.01-.03v-.03l.01-.03.01-.03.01-.03.01-.03.01-.03.02-.02.01-.03.02-.02.01-.03.02-.02.02-.03.02-.02.02-.02.03-.02.02-.02.03-.01.02-.02.03-.01.02-.02.03-.01.03-.01.03-.01.03-.01.03-.01h.03l.03-.01h.03.04z" fill="#5e51ff" fill-rule="nonzero"/><path d="m.63.08c.3 0 .54.24.54.55 0 .3-.24.54-.54.54-.31 0-.55-.24-.55-.54 0-.31.24-.55.55-.55z" fill="#fefefe"/><path d="m.59.26c.03 0 .05.03.05.05v.35h.23c.02 0 .05.02.05.04 0 .03-.03.05-.05.05h-.28-.01-.01v-.01h-.01l-.01-.01v-.01h-.01v-.01-.01-.39c0-.02.02-.05.05-.05z" fill="#5e51ff"/></svg>