<svg clip-rule="evenodd" fill-rule="evenodd" height="60" image-rendering="optimizeQuality" shape-rendering="geometricPrecision" text-rendering="geometricPrecision" viewBox="0 0 2.9 1.71" width="100" xmlns="http://www.w3.org/2000/svg"><path d="m1.14 1.05c-.06.07-.1.17-.09.27 0 .1.04.19.11.27.04.04.08.07.13.09s.1.03.16.03c.05 0 .1-.01.15-.03s.1-.05.13-.09c.02-.01.04-.03.05-.05.02-.02.03-.04.04-.07l.57-1.1-1.11.57c-.02.01-.05.03-.07.04-.02.02-.05.04-.07.07zm.14.09c.02-.02.05-.04.08-.05s.06-.02.09-.02.06.01.09.02.05.03.08.05c.04.05.07.11.07.17s-.03.12-.07.17c-.03.02-.05.04-.08.05s-.06.02-.09.02-.06-.01-.09-.02-.06-.03-.08-.05c-.05-.05-.07-.11-.07-.17s.02-.12.07-.17zm1.37-.01c.03.1.05.21.05.32 0 .03.01.05.03.07.01.02.04.03.07.03s.05-.01.07-.03c.02-.01.03-.04.03-.07 0-.13-.02-.25-.05-.38-.03-.12-.08-.24-.14-.35-.02-.02-.04-.04-.07-.05-.02 0-.05 0-.07.02h-.01c-.02.01-.04.03-.04.06-.01.02-.01.05.01.08.05.09.1.19.12.3zm-2.22-.7c-.27.26-.43.62-.43 1.02 0 .03.01.06.03.07.02.02.04.03.07.03s.06-.01.08-.03c.01-.01.03-.04.03-.07 0-.34.14-.65.36-.88.23-.22.54-.36.88-.36.08 0 .16 0 .24.02.07.01.15.03.22.06.03.01.06.01.08 0 .03-.01.05-.03.06-.05.01-.03.01-.06 0-.08-.02-.03-.03-.05-.06-.06-.09-.03-.17-.06-.26-.07-.09-.02-.19-.03-.28-.03-.4 0-.76.16-1.02.43z" fill="#5e51ff" fill-rule="nonzero"/></svg>