<svg clip-rule="evenodd" fill-rule="evenodd" height="148" image-rendering="optimizeQuality" shape-rendering="geometricPrecision" text-rendering="geometricPrecision" viewBox="0 0 2.64 3.96" width="100" xmlns="http://www.w3.org/2000/svg"><path d="m1.32 3.96-1.14-1.98c-.51-.88.13-1.98 1.14-1.98 1.02 0 1.65 1.1 1.14 1.98z" fill="#2f287f" fill-rule="nonzero"/><path d="m2.46 1.98c.51-.88-.12-1.98-1.14-1.98v3.96z" fill-opacity=".101961" fill-rule="nonzero"/><path d="m.71 1.64v.22c0 .06.02.1.05.13s.07.05.13.05h.43.01.43c.06 0 .09-.02.12-.05s.05-.07.05-.13v-.22c0-.15-.04-.25-.13-.34-.01-.02-.07-.07-.09-.07-.03 0-.05.02-.05.05s.03.04.06.06c.07.06.12.16.12.26v.28c0 .01-.01.04-.02.05-.02.01-.03.02-.05.02h-.44-.01-.44c-.03 0-.04-.01-.05-.02s-.03-.04-.03-.05v-.28c0-.1.05-.2.12-.26.04-.02.06-.03.06-.06s-.02-.05-.05-.05c-.02 0-.08.05-.09.07-.09.09-.13.19-.13.34zm.25-.7c0 .08 0 .11.03.18.04.08.11.15.19.18.3.12.6-.17.48-.48-.04-.09-.1-.15-.18-.19-.13-.06-.31-.04-.41.06-.03.04-.05.06-.07.1s-.04.1-.04.15zm.08 0c0 .07 0 .09.02.15.04.06.09.11.15.14.24.09.47-.14.37-.38-.02-.07-.07-.12-.14-.15-.1-.05-.23-.03-.31.05-.03.03-.05.04-.06.08-.02.03-.03.07-.03.11z" fill="#fefefe"/></svg>