<svg clip-rule="evenodd" fill-rule="evenodd" height="98" image-rendering="optimizeQuality" shape-rendering="geometricPrecision" text-rendering="geometricPrecision" viewBox="0 0 3.09 3.07" width="100" xmlns="http://www.w3.org/2000/svg"><g fill="#5e51ff" fill-rule="nonzero"><path d="m1.86 2.8c-.03.01-.06.01-.08.02-.07.01-.11.08-.1.14.01.04.02.06.05.08s.06.03.09.02c.04 0 .07-.01.1-.02.06-.01.1-.08.09-.15-.02-.06-.09-.1-.15-.09z"/><path d="m2.77 1.14c.01.02.03.05.05.06.03.02.07.03.11.02.07-.03.1-.1.08-.16-.01-.03-.02-.06-.03-.09-.03-.06-.1-.09-.16-.07-.07.03-.1.1-.07.16.01.03.02.05.02.08z"/><path d="m2.26 2.62c-.02.02-.04.03-.07.05-.06.03-.08.11-.04.17.01.01.02.03.03.04.04.02.09.03.14 0 .02-.01.05-.03.08-.05.05-.04.07-.11.03-.17s-.11-.07-.17-.04z"/><path d="m3.09 1.48c-.01-.06-.06-.12-.13-.11-.07 0-.12.06-.12.12v.08c0 .05.02.08.05.11.02.01.05.02.07.02.07 0 .13-.05.13-.12 0-.03 0-.06 0-.1z"/><path d="m2.75 2.3c-.05-.04-.13-.03-.17.02-.02.02-.03.04-.05.06-.04.06-.04.14.01.18.01 0 .01 0 .01.01.06.03.13.02.17-.02.02-.03.04-.05.06-.08.04-.05.03-.13-.03-.17z"/><path d="m2.94 1.85c-.07-.02-.14.02-.16.08-.01.03-.02.05-.02.08-.03.05-.01.11.04.14.01.01.02.01.03.02.06.02.13-.01.16-.08.01-.03.02-.06.03-.09.02-.06-.02-.13-.08-.15z"/><path d="m1.31 2.82c-.11-.02-.21-.05-.31-.1-.01 0-.01 0-.01 0-.02-.01-.04-.03-.07-.04-.04-.02-.08-.05-.12-.08-.59-.41-.73-1.22-.31-1.8.08-.13.19-.23.31-.32h.01c.42-.29 1-.31 1.45-.01l-.09.14c-.03.04-.01.06.03.06l.42-.04c.05 0 .08-.04.07-.09l-.12-.41c-.01-.04-.04-.05-.07-.01l-.1.14c-.33-.22-.72-.31-1.12-.24-.04.01-.08.02-.12.03-.34.09-.64.29-.85.57 0 0 0 0-.01.01 0 0-.01.01-.02.02-.01.02-.02.04-.03.05v.01c-.18.27-.26.58-.25.9 0 .04.01.07.01.1 0 .04.01.07.01.1.06.32.21.61.44.83.06.06.12.12.2.17.18.13.39.21.61.25.07.02.13-.03.14-.1.02-.06-.03-.13-.1-.14z"/><path d="m1.47.54c-.06 0-.1.05-.1.1v1l.91.48c.02 0 .03.01.05.01.04 0 .07-.02.09-.06.02-.05 0-.11-.04-.13l-.81-.42v-.88c0-.05-.05-.1-.1-.1z"/></g></svg>