<svg clip-rule="evenodd" fill-rule="evenodd" height="78" image-rendering="optimizeQuality" shape-rendering="geometricPrecision" text-rendering="geometricPrecision" viewBox="0 0 35.81 27.98" width="100" xmlns="http://www.w3.org/2000/svg"><g fill-rule="nonzero"><path d="m12.32 27.98h-6.88v-2.24h6.88c.92 0 1.66-.75 1.66-1.67 0-2.15 1.76-3.9 3.91-3.9h8.66v2.24h-8.66c-.92 0-1.67.75-1.67 1.66 0 2.16-1.75 3.91-3.9 3.91z" fill="#cac5ff"/><path d="m9.28 16.45c-2.13-2.12-5.56-2.12-7.69 0-2.12 2.12-2.12 5.56 0 7.68l3.85 3.85 3.84-3.85c2.12-2.12 2.12-5.56 0-7.68zm-3.84 5.93c-1.21 0-2.18-.98-2.18-2.18s.97-2.17 2.18-2.17c1.2 0 2.17.97 2.17 2.17s-.97 2.18-2.17 2.18z" fill="#ff0080"/><path d="m19.99 15.82c-3.61-3.61-3.61-9.49 0-13.11 3.61-3.61 9.5-3.61 13.11 0 3.61 3.62 3.61 9.5 0 13.11l-6.55 6.59zm6.56-13.58c-1.81 0-3.61.68-4.98 2.05-2.74 2.75-2.74 7.21 0 9.95l4.98 4.97 4.97-4.97c2.74-2.74 2.74-7.2 0-9.95-1.37-1.37-3.17-2.05-4.97-2.05zm0 11.27c-2.42 0-4.38-1.96-4.38-4.38 0-2.41 1.96-4.38 4.38-4.38 2.41 0 4.37 1.97 4.37 4.38 0 2.42-1.96 4.38-4.37 4.38zm0-6.52c-1.19 0-2.15.96-2.15 2.14s.96 2.14 2.15 2.14c1.18 0 2.14-.96 2.14-2.14s-.96-2.14-2.14-2.14z" fill="#2f00b0"/></g></svg>