<svg clip-rule="evenodd" fill-rule="evenodd" height="118" image-rendering="optimizeQuality" shape-rendering="geometricPrecision" text-rendering="geometricPrecision" viewBox="0 0 12.7 15.18" width="100" xmlns="http://www.w3.org/2000/svg"><g fill="#5e51ff"><path d="m8.57 5.4c0-1.74-1.42-3.17-3.17-3.17-1.74 0-3.17 1.43-3.17 3.17 0 1.75 1.43 3.17 3.17 3.17 1.75 0 3.17-1.42 3.17-3.17zm-3.17 2.57c-1.41 0-2.56-1.15-2.56-2.57 0-1.41 1.15-2.56 2.56-2.56 1.42 0 2.57 1.15 2.57 2.56 0 1.42-1.15 2.57-2.57 2.57z"/><path d="m2.71 2.72c.07 0 .15-.02.2-.07.69-.62 1.57-.96 2.49-.96.52 0 1.02.1 1.49.31.15.06.33-.01.39-.16.07-.15 0-.33-.15-.4-.55-.24-1.13-.36-1.73-.36-1.07 0-2.1.4-2.89 1.12-.13.11-.13.3-.02.43.06.06.14.09.22.09z"/><path d="m1.99 3.27c-.15-.08-.34-.02-.41.13-.33.61-.5 1.31-.5 2 0 .17.14.31.31.31.16 0 .3-.14.3-.31 0-.6.15-1.19.42-1.72.08-.15.02-.33-.12-.41z"/><path d="m12.62 14.67-2.26-2.26c.26-.38.42-.84.42-1.34 0-.88-.49-1.64-1.21-2.04.82-1.56 1.24-2.78 1.24-3.63 0-2.98-2.43-5.4-5.41-5.4s-5.4 2.42-5.4 5.4c0 2.89 4.95 9.39 5.16 9.67.06.07.15.11.24.11.1 0 .19-.04.24-.11.01-.01.67-.88 1.51-2.1.37.26.83.41 1.32.41.56 0 1.07-.2 1.47-.53l2.25 2.25c.06.05.13.08.21.08s.16-.03.22-.08c.11-.12.11-.31 0-.43zm-7.22-.29c-.42-.58-1.36-1.88-2.29-3.35-1.64-2.59-2.51-4.53-2.51-5.63 0-2.64 2.16-4.8 4.8-4.8 2.65 0 4.8 2.16 4.8 4.8 0 .76-.4 1.91-1.2 3.42-.17-.04-.35-.06-.53-.06-1.28 0-2.31 1.03-2.31 2.31 0 .57.2 1.09.54 1.49-.55.8-1.02 1.45-1.3 1.82zm3.07-1.6c-.94 0-1.71-.77-1.71-1.71s.77-1.71 1.71-1.71 1.71.77 1.71 1.71-.77 1.71-1.71 1.71z"/></g></svg>