<svg clip-rule="evenodd" fill-rule="evenodd" height="120" image-rendering="optimizeQuality" shape-rendering="geometricPrecision" text-rendering="geometricPrecision" viewBox="0 0 5.26 6.29" width="100" xmlns="http://www.w3.org/2000/svg"><path d="m5.23 6.08-.94-.94c.11-.15.18-.35.18-.55 0-.37-.21-.68-.51-.85.35-.65.52-1.15.52-1.5 0-1.24-1.01-2.24-2.24-2.24-1.24 0-2.24 1-2.24 2.24 0 1.2 2.05 3.89 2.14 4 .02.03.06.05.1.05s.08-.02.1-.05c0 0 .28-.36.62-.87.16.11.35.18.55.18.23 0 .44-.09.61-.22l.93.93c.03.02.06.03.09.03s.06-.01.09-.03c.05-.05.05-.13 0-.18zm-2.99-.12c-.18-.24-.57-.78-.95-1.39-.68-1.07-1.04-1.88-1.04-2.33 0-1.1.89-1.99 1.99-1.99s1.99.89 1.99 1.99c0 .31-.17.79-.5 1.41-.07-.01-.15-.02-.22-.02-.53 0-.96.43-.96.96 0 .23.09.45.23.61-.23.34-.43.61-.54.76zm1.27-.66c-.39 0-.71-.32-.71-.71s.32-.71.71-.71.71.32.71.71-.32.71-.71.71z" fill="#5e51ff"/></svg>